<?xml version="1.0" encoding="UTF-8"?>
<svg xmlns="http://www.w3.org/2000/svg" xmlns:v="https://vecta.io/nano" class="A" id="A" viewBox="0 0 750 500">
  <style><![CDATA[svg#A.A #B{animation:1s 1 forwards cubic-bezier(.36,-0.01,.5,1.38) fadeIn;animation-delay:0s}svg#A.A #C{animation:1s 1 forwards cubic-bezier(.36,-0.01,.5,1.38) lightSpeedRight;animation-delay:0s}svg#A.A #D{animation:1s 1 forwards cubic-bezier(.36,-0.01,.5,1.38) fadeIn,3s Infinite linear floating;animation-delay:0s,1s}svg#A.A #E{animation:1s 1 forwards cubic-bezier(.36,-0.01,.5,1.38) slideLeft,6s Infinite linear heartbeat;animation-delay:0s,1s}svg#A.A #F{animation:1s 1 forwards cubic-bezier(.36,-0.01,.5,1.38) slideRight;animation-delay:0s}svg#A.A #G{animation:1s 1 forwards cubic-bezier(.36,-0.01,.5,1.38) lightSpeedRight,6s Infinite linear wind;animation-delay:0s,1s}svg#A.A #H{animation:1s 1 forwards cubic-bezier(.36,-0.01,.5,1.38) zoomIn;animation-delay:0s}svg#A.A #I{animation:1s 1 forwards cubic-bezier(.36,-0.01,.5,1.38) slideDown;animation-delay:0s}svg#A.A #J{animation:1s 1 forwards cubic-bezier(.36,-0.01,.5,1.38) zoomOut;animation-delay:0s}svg#A.A #K{animation:1s 1 forwards cubic-bezier(.36,-0.01,.5,1.38) zoomOut;animation-delay:0s}@keyframes fadeIn{0%{opacity:0}100%{opacity:1}} @keyframes lightSpeedRight{from{transform:translate3d(50%, 0, 0) skewX(-20deg);opacity:0}60%{transform:skewX(10deg);opacity:1}80%{transform:skewX(-2deg)}to{opacity:1;transform:translate3d(0, 0, 0)}} @keyframes floating{0%{opacity:1;transform:translateY(0px)}50%{transform:translateY(-10px)}100%{opacity:1;transform:translateY(0px)}} @keyframes slideLeft{0%{opacity:0;transform:translateX(-30px)}100%{opacity:1;transform:translateX(0)}} @keyframes heartbeat{0%{transform:scale(1)}10%{transform:scale(1.1)}30%{transform:scale(1)}40%{transform:scale(1)}50%{transform:scale(1.1)}60%{transform:scale(1)}100%{transform:scale(1)}} @keyframes slideRight{0%{opacity:0;transform:translateX(30px)}100%{opacity:1;transform:translateX(0)}} @keyframes wind{0%{transform:rotate( 0deg )}25%{transform:rotate( 1deg )}75%{transform:rotate( -1deg )}} @keyframes zoomIn{0%{opacity:0;transform:scale(0.5)}100%{opacity:1;transform:scale(1)}} @keyframes slideDown{0%{opacity:0;transform:translateY(-30px)}100%{opacity:1;transform:translateY(0)}} @keyframes zoomOut{0%{opacity:0;transform:scale(1.5)}100%{opacity:1;transform:scale(1)}} @keyframes fadeIn{0%{opacity:0}100%{opacity:1}} @keyframes lightSpeedRight{from{transform:translate3d(50%, 0, 0) skewX(-20deg);opacity:0}60%{transform:skewX(10deg);opacity:1}80%{transform:skewX(-2deg)}to{opacity:1;transform:translate3d(0, 0, 0)}} @keyframes floating{0%{opacity:1;transform:translateY(0px)}50%{transform:translateY(-10px)}100%{opacity:1;transform:translateY(0px)}} @keyframes slideLeft{0%{opacity:0;transform:translateX(-30px)}100%{opacity:1;transform:translateX(0)}} @keyframes heartbeat{0%{transform:scale(1)}10%{transform:scale(1.1)}30%{transform:scale(1)}40%{transform:scale(1)}50%{transform:scale(1.1)}60%{transform:scale(1)}100%{transform:scale(1)}} @keyframes slideRight{0%{opacity:0;transform:translateX(30px)}100%{opacity:1;transform:translateX(0)}} @keyframes wind{0%{transform:rotate( 0deg )}25%{transform:rotate( 1deg )}75%{transform:rotate( -1deg )}} @keyframes zoomIn{0%{opacity:0;transform:scale(0.5)}100%{opacity:1;transform:scale(1)}} @keyframes slideDown{0%{opacity:0;transform:translateY(-30px)}100%{opacity:1;transform:translateY(0)}} @keyframes zoomOut{0%{opacity:0;transform:scale(1.5)}100%{opacity:1;transform:scale(1)}}.C{fill:#263238}.D{fill:#f08b7a}.E{fill:#fff}.F{opacity:.4}.G{fill:#fafafa}.H{fill:#e0e0e0}.I{fill:#455a64}.J{opacity:.7}.K{fill:#b78876}]]></style>
  <g id="B" class="B">
    <path d="M589.59 257.64L430 229.19a7.54 7.54 0 0 1-6.1-8.75l17.57-98.6a7.55 7.55 0 0 1 8.75-6.1l159.62 28.45a7.54 7.54 0 0 1 6.1 8.75l-17.58 98.6a7.54 7.54 0 0 1-8.77 6.1z" class="H"></path>
    <g class="E">
      <path d="M586.83 167.33a12.23 12.23 0 1 1-9.89-14.19 12.21 12.21 0 0 1 9.89 14.19z"></path>
      <path d="M589.33 180.5a13.27 13.27 0 0 1-2.26-.2 12.7 12.7 0 1 1 2.26.2zm0-24.47a11.74 11.74 0 1 0 11.55 13.79h0a11.73 11.73 0 0 0-9.49-13.6 11.12 11.12 0 0 0-2.09-.22z"></path>
      <path d="M445.29,189.76l-1.72,9.68-1-.18,1.57-8.8-2.28-.4.15-.89Z"></path>
      <path d="M453.68,200.33l-.15.89-6.8-1.21.13-.71,4.73-3.23c1.28-.88,1.61-1.49,1.72-2.16.2-1.12-.46-1.95-1.94-2.21a3.32,3.32,0,0,0-2.84.6l-.59-.73a4.38,4.38,0,0,1,3.67-.77c2,.35,3,1.57,2.75,3.18-.17.93-.61,1.71-2.13,2.75l-3.87,2.65Z"></path>
      <path d="M464.17,200.49l-1.93-.35-.46,2.55-1-.18.45-2.54-5.46-1,.12-.72,6.28-5.5,1.11.19-6.07,5.37,4.21.75.4-2.24,1,.18-.39,2.24,1.93.34Z"></path>
      <path d="M479 203.13l-1.94-.34-.45 2.54-1-.17.45-2.55-5.46-1 .13-.72 6.28-5.51 1.1.2-6.05 5.42 4.21.75.4-2.24 1 .17-.4 2.24 1.93.35z"></path>
      <path d="M487.54 204.34c-.3 1.65-1.68 2.73-4 2.31a5.05 5.05 0 0 1-3.25-1.87l.62-.7a4.27 4.27 0 0 0 2.78 1.65c1.64.29 2.66-.35 2.87-1.53s-.42-2.16-2.88-2.6l-2.06-.36 1.36-4.77 5.3.94-.16.89-4.42-.79-.88 3 1.24.23c2.88.54 3.78 1.88 3.48 3.6z"></path>
      <path d="M497.12 206a3.07 3.07 0 0 1-3.84 2.39c-2.57-.46-3.65-2.49-3.11-5.55.59-3.29 2.69-4.69 5.32-4.22a4.47 4.47 0 0 1 2.2.93l-.54.73a3.55 3.55 0 0 0-1.8-.79c-2.09-.37-3.67.73-4.14 3.36 0 .22-.07.5-.1.8a3.15 3.15 0 0 1 3.26-1.13c1.92.34 3.06 1.71 2.75 3.48zm-1-.14c.23-1.28-.57-2.26-2.06-2.53a2.28 2.28 0 0 0-2.86 1.67c-.19 1.06.51 2.23 2.19 2.53a2.15 2.15 0 0 0 2.74-1.67z"></path>
      <path d="M510.35 208.48c-.29 1.62-1.69 2.65-4 2.23a5.07 5.07 0 0 1-3.26-1.86l.62-.7a4.32 4.32 0 0 0 2.8 1.65c1.61.29 2.63-.3 2.84-1.51s-.47-2.06-2.27-2.39l-.69-.12.13-.73 3.28-2.89-4.95-.88.16-.88 6.22 1.11-.12.7-3.36 3c2.03.44 2.87 1.72 2.6 3.27z"></path>
      <path d="M520.08 210.1a3.07 3.07 0 0 1-3.84 2.38c-2.57-.46-3.65-2.49-3.11-5.55.59-3.29 2.69-4.69 5.32-4.22a4.65 4.65 0 0 1 2.21.94l-.55.73a3.47 3.47 0 0 0-1.8-.79c-2.09-.38-3.67.73-4.14 3.36 0 .22-.07.5-.1.79a3.15 3.15 0 0 1 3.26-1.13c1.92.39 3.06 1.72 2.75 3.49zm-1-.15c.23-1.27-.57-2.26-2.06-2.52a2.27 2.27 0 0 0-2.87 1.67c-.19 1.06.52 2.23 2.19 2.53a2.15 2.15 0 0 0 2.75-1.63z"></path>
      <path d="M530.2,204.89l-.13.71-5.65,8.25-1.08-.19,5.55-8.09-5-.89-.32,1.82-1-.18.49-2.7Z"></path>
      <path d="M544,207.36l-.12.71-5.66,8.25-1.08-.19,5.56-8.09-5-.89-.33,1.82-1-.18.48-2.7Z"></path>
      <path d="M552.33 216.05c-.31 1.71-2 2.52-4.26 2.11s-3.55-1.74-3.24-3.45a2.47 2.47 0 0 1 2.29-2.05 2.22 2.22 0 0 1-1.14-2.4c.28-1.58 1.8-2.32 3.84-1.95s3.25 1.59 3 3.16a2.24 2.24 0 0 1-1.93 1.86 2.49 2.49 0 0 1 1.44 2.72zm-1-.2c.21-1.19-.68-2.12-2.4-2.43s-2.86.27-3.07 1.46.66 2.13 2.38 2.43 2.85-.26 3.07-1.46zm-2.26-3.21c1.51.26 2.53-.25 2.72-1.3s-.64-1.93-2.1-2.19-2.51.24-2.7 1.32.55 1.9 2.06 2.17z"></path>
      <path d="M562.13 215.5c-.59 3.29-2.69 4.68-5.32 4.21a4.47 4.47 0 0 1-2.2-.93l.54-.73a3.47 3.47 0 0 0 1.8.79c2.09.37 3.67-.73 4.14-3.36a7.36 7.36 0 0 0 .1-.79 3.16 3.16 0 0 1-3.26 1.13c-1.92-.35-3.06-1.72-2.74-3.49a3.07 3.07 0 0 1 3.83-2.39c2.58.46 3.66 2.5 3.11 5.56zm-1-2.17c.19-1.07-.51-2.24-2.19-2.53a2.15 2.15 0 0 0-2.74 1.68c-.22 1.27.57 2.25 2.07 2.52a2.27 2.27 0 0 0 2.83-1.67z"></path>
      <path d="M572.8,212.49l-1.73,9.68-1-.18,1.57-8.8-2.29-.4.16-.89Z"></path>
      <path d="M581.19 223.06l-.19.94-6.79-1.21.13-.71 4.72-3.23c1.29-.88 1.61-1.49 1.73-2.16.2-1.12-.46-1.95-1.94-2.21a3.32 3.32 0 0 0-2.84.6l-.6-.73a4.42 4.42 0 0 1 3.68-.77c2 .35 3 1.57 2.75 3.19-.17.92-.61 1.7-2.14 2.74l-3.87 2.65z"></path>
      <path d="M590.22 222.71c-.29 1.62-1.69 2.66-4 2.24a5.08 5.08 0 0 1-3.26-1.87l.62-.7a4.34 4.34 0 0 0 2.8 1.66c1.61.28 2.63-.3 2.84-1.51s-.47-2.07-2.27-2.39l-.69-.12.13-.73 3.28-2.89-4.95-.88.16-.89 6.22 1.11-.12.71-3.36 3c2.03.44 2.87 1.71 2.6 3.26z"></path>
    </g>
    <g class="E">
      <path d="M550.34 189.02h4.27v78.8h-4.27z" transform="rotate(280.11)"></path>
    </g>
    <g class="E">
      <path d="M567.74 219.98h4.27v40.41h-4.27z" transform="rotate(280.11)"></path>
    </g>
    <g>
      <g opacity=".5">
        <g>
          <rect x="442.78" y="158.75" width="33.06" height="24.7" rx="4.96" fill="#ebebeb" transform="rotate(10.11)"></rect>
        </g>
      </g>
    </g>
    <path d="M442.07,173.62l.28-1.56,16.76,3a3.57,3.57,0,0,0,1.25-7l-16.76-3,.28-1.56,16.76,3a5.15,5.15,0,0,1-1.81,10.14Z" class="H"></path>
    <g class="H">
      <path d="M468.98 167.49h1.58v11.68h-1.58z" transform="rotate(280.16)"></path>
    </g>
    <g class="E">
      <path d="M451.32 144.12h85.03v7.3h-85.03z" transform="rotate(10.11)"></path>
    </g>
    <g class="H">
      <rect x="170.89" y="43.66" width="141.74" height="146.24" rx="8.76" transform="rotate(346.34)"></rect>
    </g>
    <g class="E">
      <path d="M276.17 137.66s-.08 0-.27.09l-.8.23-3.12.82-11.59 2.91-39 9.57-.26.07-.1-.26-2.48-6.24-17.8-45.24.24.12-10.4 2.43-2.78.62-.72.15a.74.74 0 0 1-.24 0s.07 0 .23-.09l.71-.2 2.74-.72 10.36-2.61h.17l.07.16 18 45.16 2.47 6.24-.36-.19 39-9.37 11.63-2.73 3.15-.71.82-.17z"></path>
      <path d="M217 140l.27-.1.81-.22 3.12-.81 11.71-2.94 40.43-9.93-.23.31-1.46-22.72-.75-11.94.39.29-47.7 11.48-14.14 3.34-3.82.87-1 .21a1.1 1.1 0 0 1-.34.05 1.89 1.89 0 0 1 .33-.11l1-.26 3.79-1 14.1-3.52 47.65-11.69.36-.09v.37l.76 11.94 1.43 22.72v.26l-.25.06-40.46 9.75-11.75 2.76-3.15.71-.81.18a1.48 1.48 0 0 1-.29.03z"></path>
      <path d="M238.68 162.52c-.06 0-.17-.47-.61-1.23a5.62 5.62 0 0 0-2.71-2.39 5.37 5.37 0 1 0 2 8.37 5.67 5.67 0 0 0 1.31-3.37c0-.87-.09-1.36 0-1.38s.06.12.13.35a4.36 4.36 0 0 1 .15 1 5.65 5.65 0 0 1-1.21 3.65 5.85 5.85 0 0 1-5.2 2.2 5.91 5.91 0 0 1-2.63-10.83 5.83 5.83 0 0 1 5.63-.43 5.6 5.6 0 0 1 2.74 2.68 4.26 4.26 0 0 1 .35 1c.06.26.07.38.05.38z"></path>
      <path d="M274 154c-.06 0-.18-.47-.61-1.24a5.61 5.61 0 0 0-2.71-2.38 5.36 5.36 0 1 0 2 8.36 5.71 5.71 0 0 0 1.31-3.36c0-.88-.09-1.37 0-1.38s.06.11.13.34a4.06 4.06 0 0 1 .14 1A5.6 5.6 0 0 1 273 159a5.82 5.82 0 0 1-5.19 2.2 5.91 5.91 0 0 1-2.64-10.83 5.83 5.83 0 0 1 5.63-.43 5.59 5.59 0 0 1 2.75 2.68 3.73 3.73 0 0 1 .34 1 .87.87 0 0 1 .11.38z"></path>
      <path d="M282.51,83a16.1,16.1,0,1,1-19.44-11.84A16.09,16.09,0,0,1,282.51,83Z"></path>
    </g>
    <path d="M273.7 80.81a16.82 16.82 0 0 1-1.45 3l-3.9 7-1.67 2.89-.14.25-.26-.13-5-2.74a9.91 9.91 0 0 1-1.91-1.2 9.49 9.49 0 0 1 2.09.86l5.15 2.54-.4.12 1.64-2.91 4.06-6.91a15.7 15.7 0 0 1 1.79-2.77z" class="H"></path>
  </g>
  <g id="C" class="B C">
    <path d="M691.3 466.59c0 .14-143.57.26-320.63.26S50 466.73 50 466.59s143.54-.26 320.66-.26l320.64.26z"></path>
  </g>
  <g id="D" class="B">
    <path d="M446.35 466.79l-132.86-.62a28.94 28.94 0 0 1-28.81-29.06L286.09 104a29 29 0 0 1 29.08-28.8l132.83.61a29 29 0 0 1 28.81 29.07L475.43 438a29 29 0 0 1-29.08 28.79z" class="I"></path>
    <path d="M447.84 87.31l-25.76-.12a6.4 6.4 0 0 0-6.28 6.51v4.67a6.39 6.39 0 0 1-6.28 6.51l-50.22-.23a6.39 6.39 0 0 1-6.22-6.57v-4.67a6.42 6.42 0 0 0-6.23-6.57h-9.06l-22.55-.1a20.27 20.27 0 0 0-20.36 20.18L293.51 432a20.27 20.27 0 0 0 20.17 20.36l132.6.61a20.27 20.27 0 0 0 20.36-20.19L468 107.66a20.27 20.27 0 0 0-20.16-20.35z" class="G"></path>
    <g class="C">
      <path d="M450.74 119.31a21.48 21.48 0 0 1-3.33.17l-8.18.09H439v-.22l-.19-1.36-1.28-9.84.16.14a18.08 18.08 0 0 1-3-.17 19 19 0 0 1 3-.16h.14v.14l1.46 9.82.19 1.35-.25-.22 8.18.09a21.48 21.48 0 0 1 3.33.17z"></path>
      <path d="M438.89 116.92a4.86 4.86 0 0 1 .89-.08l2.46-.07 8.5-.09-.25.2.8-4.58.43-2.4.25.3c-4 0-7.49 0-10-.09l-3-.07a4 4 0 0 1-1.07-.1 5.13 5.13 0 0 1 1.07-.09l3-.08 10-.08h.31v.3l-.42 2.4-.82 4.58v.21h-.21c-3.43 0-6.39 0-8.5-.09l-2.46-.07a3.52 3.52 0 0 1-.98-.1z"></path>
      <path d="M442.1 122.44c-.08 0-.08-.45-.56-.77a1 1 0 0 0-.9-.09.92.92 0 0 0 0 1.71 1 1 0 0 0 .9-.09c.48-.31.48-.78.56-.76s.08.1.07.3a1.2 1.2 0 0 1-.41.76 1.33 1.33 0 0 1-1.28.24 1.38 1.38 0 0 1 0-2.61 1.33 1.33 0 0 1 1.28.24 1.2 1.2 0 0 1 .41.76c.01.2-.03.31-.07.31z"></path>
      <path d="M449.51 122.44c-.08 0-.08-.45-.56-.77a1 1 0 0 0-.9-.09.92.92 0 0 0 0 1.71 1 1 0 0 0 .9-.09c.48-.31.48-.78.56-.76s.08.1.07.3a1.2 1.2 0 0 1-.41.76 1.33 1.33 0 0 1-1.28.24 1.37 1.37 0 0 1-.94-1.3 1.39 1.39 0 0 1 .94-1.31 1.33 1.33 0 0 1 1.28.24 1.2 1.2 0 0 1 .41.76c.01.2-.03.31-.07.31z"></path>
      <path d="M332.6 120.53a95.91 95.91 0 0 1-9.91.26 95.75 95.75 0 0 1-9.91-.26 92.49 92.49 0 0 1 9.91-.26 92.65 92.65 0 0 1 9.91.26z"></path>
      <path d="M332.6 116.78a92.65 92.65 0 0 1-9.91.26 92.49 92.49 0 0 1-9.91-.26 95.75 95.75 0 0 1 9.91-.26 95.91 95.91 0 0 1 9.91.26z"></path>
      <path d="M332.6 113a95.91 95.91 0 0 1-9.91.26 95.75 95.75 0 0 1-9.91-.26 95.75 95.75 0 0 1 9.91-.26 95.91 95.91 0 0 1 9.91.26z"></path>
    </g>
    <g clip-path="url(#L)">
      <path d="M365.63 173.8s-13.3-.18-16.23 4.17-15 31.42-15 31.42l18.87 9.82 4.06-11.6 6.62 24.25c-7.58 6-18.32 60.63-16.18 83.64l70.88.23s.49-63.84-18.68-84.83l4.49-25.35 4.33 12.37 20-8.3-15.05-27.07a14.58 14.58 0 0 0-12.66-7.49h-4.91s-2.07 18.12-15.24 17.77-15.3-19.03-15.3-19.03z" class="D"></path>
      <g class="G">
        <path d="M433.81 259.88a1.64 1.64 0 0 1 0-.32c0-.24 0-.55-.08-.94a9.63 9.63 0 0 0-.17-1.52 15 15 0 0 0-.43-2 18.85 18.85 0 0 0-2.21-5.24 19.63 19.63 0 0 0-23.58-8.34 18.19 18.19 0 0 0-4.95 2.67 21.86 21.86 0 0 0-2.22 1.88 22.25 22.25 0 0 0-1.92 2.28 19.65 19.65 0 0 0-3.81 11.56 21.21 21.21 0 0 0 1 6.18 19.24 19.24 0 0 0 2.8 5.4 18 18 0 0 0 4.14 4.16 18.47 18.47 0 0 0 4.95 2.67 19.66 19.66 0 0 0 23.58-8.35 18.55 18.55 0 0 0 2.21-5.24 15.22 15.22 0 0 0 .43-2 9.88 9.88 0 0 0 .17-1.52c0-.39.06-.7.08-.94a1.64 1.64 0 0 1 0-.32 1.57 1.57 0 0 1 0 .32v.95a9.33 9.33 0 0 1-.13 1.53 13.42 13.42 0 0 1-.38 2.06 18.66 18.66 0 0 1-2.16 5.34 20 20 0 0 1-13.45 9.49 20.12 20.12 0 0 1-10.54-.84 18.71 18.71 0 0 1-5.09-2.72 24.26 24.26 0 0 1-2.28-1.93 22 22 0 0 1-2-2.33 19.53 19.53 0 0 1-2.88-5.53 21.38 21.38 0 0 1-1-6.35A20.15 20.15 0 0 1 397.8 248a21.93 21.93 0 0 1 2-2.32 22.84 22.84 0 0 1 2.28-1.93 19.17 19.17 0 0 1 5.09-2.73 20.12 20.12 0 0 1 10.54-.84 20 20 0 0 1 13.45 9.5 18.62 18.62 0 0 1 2.16 5.33 13.32 13.32 0 0 1 .38 2.07 9.25 9.25 0 0 1 .13 1.53v.95a1.57 1.57 0 0 1-.02.32z"></path>
        <path d="M371.36 215.34a25.1 25.1 0 0 0-.56-3.56 14.49 14.49 0 0 0-19-10 14.41 14.41 0 0 0-6.69 5 14.33 14.33 0 0 0 0 17 13.42 13.42 0 0 0 3 3.06 13.57 13.57 0 0 0 3.64 2 14.42 14.42 0 0 0 7.58.64 14.25 14.25 0 0 0 6.09-2.68 14.62 14.62 0 0 0 5.34-8 24.88 24.88 0 0 0 .56-3.55.87.87 0 0 1 0 .24v.7a6.26 6.26 0 0 1-.09 1.13 10.12 10.12 0 0 1-.27 1.53 13.91 13.91 0 0 1-1.59 4 14.86 14.86 0 0 1-10 7 14.9 14.9 0 0 1-7.82-.62 13.55 13.55 0 0 1-3.78-2 13.93 13.93 0 0 1-3.16-3.16 14.81 14.81 0 0 1 0-17.63 14.14 14.14 0 0 1 3.16-3.16 13.78 13.78 0 0 1 3.78-2 14.77 14.77 0 0 1 17.78 6.43 14 14 0 0 1 1.59 3.95 10.45 10.45 0 0 1 .27 1.54 6.13 6.13 0 0 1 .09 1.13v.7a.87.87 0 0 1 .08.31z"></path>
        <path d="M371.35 301.65c-.05 0-.05-.4-.24-1.07a4.45 4.45 0 0 0-1.65-2.35 4.27 4.27 0 1 0 0 6.85 4.45 4.45 0 0 0 1.65-2.35c.19-.68.19-1.08.24-1.08s0 .1 0 .29a3.66 3.66 0 0 1-.08.84 4.47 4.47 0 0 1-1.62 2.59 4.67 4.67 0 0 1-4.45.73 4.72 4.72 0 0 1 0-8.89 4.67 4.67 0 0 1 4.45.73 4.47 4.47 0 0 1 1.62 2.59 3.58 3.58 0 0 1 .08.83c.03.2.02.29 0 .29z"></path>
        <path d="M363.56 186.51c-.05 0-.05-.4-.24-1.07a4.45 4.45 0 0 0-1.65-2.35 4.27 4.27 0 1 0 0 6.85 4.51 4.51 0 0 0 1.65-2.36c.19-.67.19-1.07.24-1.07a.74.74 0 0 1 0 .29 2.71 2.71 0 0 1-.08.83 4.39 4.39 0 0 1-1.62 2.6 4.64 4.64 0 0 1-4.44.73 4.72 4.72 0 0 1 0-8.89 4.64 4.64 0 0 1 4.44.73 4.37 4.37 0 0 1 1.62 2.59 2.73 2.73 0 0 1 .08.83.74.74 0 0 1 0 .29z"></path>
        <path d="M378.2 280.12a2.73 2.73 0 0 1-.09-.42l-.22-1.2-.76-4.5-2.62-15.91.25.19-22.06 3.51.22-.3h0v.07.1.19l.06.37.12.76.23 1.49.46 2.95.89 5.71 1.62 10.41-.26-.19L372 281l4.52-.65 1.21-.16.43-.05a1.58 1.58 0 0 1-.37.09l-1.16.21-4.45.76-16.05 2.64h-.22v-.23l-1.66-10.4q-.45-2.79-.91-5.71l-.46-2.95-.24-1.49-.12-.76-.06-.37v-.19-.17h0c-.2.27.26-.36.21-.3l22.07-3.43h.23v.22l2.42 16.09.64 4.47.16 1.16a1.86 1.86 0 0 1 .01.34z"></path>
        <path d="M405.17 222.4a2.85 2.85 0 0 1 .25-.44l.76-1.21 2.88-4.53 10.28-16 .06.32-22.06-14.33.36-.08h0 0 0l-.06.1-.13.18-.24.38-.49.75-1 1.5-1.92 3-3.71 5.69-6.8 10.39-.07-.32 15.86 10.47 4.47 3 1.19.8.41.3a2 2 0 0 1-.4-.23l-1.18-.73-4.49-2.86L383 208.23l-.19-.12.12-.19 6.76-10.41 3.7-5.71 1.92-2.94 1-1.5.49-.75.25-.38.12-.19.06-.09h0 0 0 0l.37-.08 22 14.39.19.12-.12.19-10.55 16-2.95 4.42-.78 1.15a3.66 3.66 0 0 1-.22.26z"></path>
        <path d="M390.27 289.7l-.09.17-.25.46-1 1.75-3.63 6.47-12.76 22.31-.21-.37h17.92 17.92l-.21.37-12.76-22.31-3.63-6.47-1-1.75-.25-.46-.09-.17a4.34 4.34 0 0 1 .34.55l1 1.67 3.78 6.38 13 22.31.21.37h-.42-17.92-17.92-.43l.22-.37 13-22.31 3.78-6.38 1-1.67a4.34 4.34 0 0 1 .4-.55z"></path>
        <path d="M376.06 232.52l.13.4.32 1.09 1.16 4c1 3.35 2.29 8.21 3.83 13.88l-.41-.11 7.1-7.12 7.13-7.1.11.41-13.88-3.83-4-1.17-1.09-.32a2.31 2.31 0 0 1-.4-.13l.34.07 1.05.26 4 1 14.06 3.65.42.11-.31.3-7.1 7.13-7.12 7.1-.3.3-.1-.44-3.66-14.06-1-4-.25-1.06a1.42 1.42 0 0 1-.03-.36z"></path>
      </g>
    </g>
    <g class="C">
      <path d="M400.33 231c0 .15-8 .46-18 .7l-18 .18c0-.14 8-.46 18-.7l18-.18z"></path>
      <path d="M351.4 191.18a88.4 88.4 0 0 1 3.35 8.82 89.46 89.46 0 0 1 2.86 9 82.58 82.58 0 0 1-3.35-8.83 83.92 83.92 0 0 1-2.86-8.99z"></path>
      <path d="M406.35 192.41a15.28 15.28 0 0 1-.19 2.88l-.94 6.88-1.26 6.84a14.9 14.9 0 0 1-.72 2.79 15.54 15.54 0 0 1 .36-2.86l1.11-6.85 1.09-6.85a15.72 15.72 0 0 1 .55-2.83z"></path>
      <path d="M368.22,243.73a5.21,5.21,0,0,1-.39-1.9,14.78,14.78,0,0,1,2.22-9,5.13,5.13,0,0,1,1.23-1.5,19.88,19.88,0,0,0-3.06,12.38Z"></path>
      <path d="M373.61 238.13a6.24 6.24 0 0 1-.56-3.24 6.35 6.35 0 0 1 .65-3.23 29.33 29.33 0 0 1-.13 3.24l.04 3.23z"></path>
      <path d="M404.67 299a2.57 2.57 0 0 1-.6-.25c-.38-.2-1-.44-1.66-.86a30.56 30.56 0 0 1-5.56-4.06 38.74 38.74 0 0 1-6.53-7.83 50.1 50.1 0 0 1-5.3-11.31c-2.71-8.48-3.34-16.57-3.72-22.33l-.3-6.86v-1.86a2.69 2.69 0 0 1 0-.65 4.42 4.42 0 0 1 .08.64c0 .48.08 1.1.13 1.86l.47 6.84c.47 5.75 1.16 13.79 3.85 22.2a50.45 50.45 0 0 0 5.21 11.21 39.51 39.51 0 0 0 6.37 7.82 33.1 33.1 0 0 0 5.41 4.15l2.15 1.29z"></path>
    </g>
    <g>
      <g opacity=".2">
        <path d="M381.7,249.86a40.64,40.64,0,0,0,15,26.26c3,2.34,6.47,4.51,7.73,8.08,1,2.89.3,6.12-.95,8.92a4.22,4.22,0,0,1-2.4,2.63c-1.22.32-2.45-.41-3.45-1.16-6.57-4.95-10.8-12.5-13.17-20.37s-3-16.15-3.62-24.35"></path>
      </g>
    </g>
    <g class="C">
      <path d="M421 354.55c0 .15-16.9.26-37.73.26s-37.73-.11-37.73-.26 16.89-.26 37.73-.26l37.73.26z"></path>
      <path d="M421 146.51c0 .14-16.9.26-37.73.26s-37.73-.12-37.73-.26 16.89-.26 37.73-.26l37.73.26z"></path>
      <path d="M421 360.78c0 .14-16.9.26-37.73.26s-37.73-.12-37.73-.26 16.89-.26 37.73-.26l37.73.26z"></path>
    </g>
    <path d="M378.15,378.92v10.86h-2.51v-8.85h-2.18v-2Z"></path>
    <path d="M380 384.35c0-3.59 2-5.62 4.66-5.62s4.66 2 4.66 5.62-2 5.62-4.66 5.62-4.66-2.04-4.66-5.62zm6.79 0c0-2.47-.87-3.49-2.13-3.49s-2.11 1-2.11 3.49.87 3.49 2.11 3.49 2.17-1.02 2.17-3.49z"></path>
    <g class="C">
      <path d="M396.29 381.3a2.16 2.16 0 0 1-2.26 2.38 2.32 2.32 0 0 1-1.22-.31l.38-.75a1.37 1.37 0 0 0 .82.22 1.17 1.17 0 0 0 1.25-1.28 1.55 1.55 0 0 1-1.1.39 1.4 1.4 0 0 1-1.52-1.37 1.52 1.52 0 0 1 1.67-1.48c1.23 0 1.98.77 1.98 2.2zm-1.14-.77c0-.38-.29-.66-.78-.66a.66.66 0 0 0-.73.66.66.66 0 0 0 .75.66.69.69 0 0 0 .76-.66z"></path>
      <path d="M400.31 381.3a2.16 2.16 0 0 1-2.26 2.38 2.32 2.32 0 0 1-1.22-.31l.38-.75a1.38 1.38 0 0 0 .83.22 1.17 1.17 0 0 0 1.24-1.28 1.55 1.55 0 0 1-1.1.39 1.4 1.4 0 0 1-1.52-1.37 1.52 1.52 0 0 1 1.67-1.48c1.23 0 1.98.77 1.98 2.2zm-1.15-.77a.76.76 0 1 0-.75.66.68.68 0 0 0 .75-.66z"></path>
      <path d="M392.51 385.19h7.76v.98h-7.76z"></path>
    </g>
    <path d="M404.87 346.59c0 .14-9.35.26-20.89.26s-20.89-.12-20.89-.26 9.35-.26 20.89-.26l20.89.26z" class="D"></path>
    <g class="D">
      <circle cx="439.16" cy="383.6" r="15.08" transform="rotate(337.5)"></circle>
    </g>
    <path d="M435.35 392.06a4.87 4.87 0 0 1 .83-.74l2.38-1.88c2-1.57 4.84-3.71 8-6.05v.42h0 0 0l-.07-.06-.15-.11-.29-.21-.57-.44-1.12-.84-2.12-1.6-3.57-2.73-2.38-1.88a5.13 5.13 0 0 1-.83-.75 4.29 4.29 0 0 1 .95.58l2.48 1.75 3.64 2.65 2.13 1.57 1.13.84.58.43.29.22.14.1.08.06h0 0c0 .19 0-.41 0 .42l-8.06 5.92-2.48 1.75a4.29 4.29 0 0 1-.99.58z" class="G"></path>
    <g class="D">
      <circle cx="325" cy="383.6" r="15.08" transform="rotate(279.22)"></circle>
    </g>
    <path d="M328.81 375.14a4.61 4.61 0 0 1-.83.75l-2.38 1.88-8 6v-.41h0 0l.08.05.14.11.29.22.58.43 1.12.84 2.12 1.6 3.56 2.74 2.38 1.88a4.4 4.4 0 0 1 .83.74 4.57 4.57 0 0 1-.95-.58l-2.48-1.75-3.63-2.64-2.14-1.58-1.12-.84-.58-.42-.29-.22-.15-.11-.07-.05h0 0 0v-.42l8.05-5.92 2.48-1.75a4.57 4.57 0 0 1 .99-.55z" class="G"></path>
    <g class="H">
      <path d="M314.45 409.3h30.13v30.13h-30.13z"></path>
      <path d="M352.67 409.3h30.13v30.13h-30.13z"></path>
      <path d="M390.9 409.3h30.13v30.13H390.9z"></path>
      <path d="M429.12 409.3h30.13v30.13h-30.13z"></path>
    </g>
    <path class="D" d="M354.5 136.05h56.22v3.2H354.5z"></path>
  </g>
  <g id="E" class="B">
    <g class="C">
      <path d="M596.94 409.63a2.08 2.08 0 0 1-.05-.59v-1.7l-.08-6.26v-4.32-2.41a18.92 18.92 0 0 1 .08-2.58 8.57 8.57 0 0 1 16.74-1.17 9.33 9.33 0 0 1 .32 2.59v2.41q0 2.32 0 4.32l-.08 6.26-.05 1.7a2.7 2.7 0 0 1 0 .59 2.08 2.08 0 0 1 0-.59l-.05-1.7-.09-6.26q0-2 0-4.32a18.73 18.73 0 0 0-.34-4.86 8.1 8.1 0 0 0-13.44-3.56 8.19 8.19 0 0 0-2.36 4.66 21.06 21.06 0 0 0-.09 2.51v2.41 4.32l-.08 6.26v1.7a2.7 2.7 0 0 1-.43.59z"></path>
      <path d="M607.26 409.63a2.08 2.08 0 0 1 0-.59l-.05-1.7-.09-6.26v-4.32-2.41a18.92 18.92 0 0 1 .08-2.58 8.52 8.52 0 0 1 7.89-7.39 8.55 8.55 0 0 1 8.84 6.22 9 9 0 0 1 .33 2.59v2.41q0 2.32 0 4.32l-.08 6.26v1.7a2.7 2.7 0 0 1 0 .59 2.27 2.27 0 0 1-.06-.59v-1.7l-.09-6.26q0-2 0-4.32a18.73 18.73 0 0 0-.34-4.86 8.1 8.1 0 0 0-15.8 1.1 19.15 19.15 0 0 0-.09 2.51v2.41 4.32l-.08 6.26-.05 1.7a2.7 2.7 0 0 1-.41.59z"></path>
    </g>
    <g class="D">
      <path d="M584.43 405.23l-6.95 61.39h47.72l6.02-61.39h-46.79z"></path>
      <path d="M631.22 405.23h9.97l8.42 61.39H625.2l6.02-61.39z"></path>
    </g>
    <g>
      <g class="F">
        <path d="M631.22 405.23h9.97l8.42 61.39H625.2l6.02-61.39z"></path>
      </g>
    </g>
    <path class="G" d="M582.47 422.5l45.86 12.21L626 458.5l-46.27-11.76 2.74-24.24z"></path>
  </g>
  <g id="F" class="B">
    <g class="C">
      <path d="M510.11,311a30.91,30.91,0,0,0-.33,18.79c1.13,3.75,3,7.5,2.43,11.37-.47,3.16-2.52,5.92-2.93,9.09-.82,6.44,5.3,12.54,3.66,18.82a10,10,0,0,1-5.87,6.35,18.25,18.25,0,0,1-8.8,1.11c-4.39-.38-9.14-2-11.17-6-1.62-3.12-1.11-6.87-.55-10.33,2.48-15.32,5.34-30.75,11.55-45"></path>
      <path d="M512.06 358.35a3.32 3.32 0 0 1-.51.17 5.38 5.38 0 0 1-1.55.13 5.91 5.91 0 0 1-2.36-.68 5.31 5.31 0 0 1-2.26-2.31 5.86 5.86 0 0 1-.45-3.9 5.51 5.51 0 0 1 .94-2 8.43 8.43 0 0 1 1.67-1.65 45.61 45.61 0 0 0 4-3 7.93 7.93 0 0 0 2.22-4.63 13.34 13.34 0 0 0-.38-5.21 30.07 30.07 0 0 0-1.74-4.62 38.44 38.44 0 0 1-3-7.85 11.86 11.86 0 0 1 0-5.66 6.13 6.13 0 0 1 .82-1.91 12.34 12.34 0 0 0-.71 1.94 12.21 12.21 0 0 0 .08 5.58 39 39 0 0 0 3.07 7.78 30.48 30.48 0 0 1 1.78 4.66 13.77 13.77 0 0 1 .39 5.34 8.16 8.16 0 0 1-2.32 4.8 43.18 43.18 0 0 1-4 3 6.18 6.18 0 0 0-2.52 3.49 5.6 5.6 0 0 0 .39 3.74 5.24 5.24 0 0 0 2.15 2.26 6 6 0 0 0 2.28.71 6.64 6.64 0 0 0 2.01-.18z"></path>
    </g>
    <path d="M451.59,457l-2.5,9.58-25.75-.24s1.89-4.51,16-4.3l1-5Z" class="K"></path>
    <path d="M545.34,313.36c-.25.49-6.79,34.09-6.79,34.09l15.41.72,6-28.89Z" class="I"></path>
    <g class="C">
      <path d="M538.55 347.45l-1.76-.75 6.67-33.12 2.09-.14-7 34.01z"></path>
      <path d="M551.53 320.7a.8.8 0 1 0 .89-.69.79.79 0 0 0-.89.69z"></path>
    </g>
    <path d="M554.71,344.29l.23-4.4-6.58-2.72,2.57-6.09a5.31,5.31,0,0,1,7.39-2.53L561,330a7.56,7.56,0,0,1,3.75,4.87,98.58,98.58,0,0,1,1.53,10.75" class="K"></path>
    <path d="M572.33 456.28l28.17 7.88c1.63.58 1.36 6.55-1.18 6.46-1.2 0-20.8.73-23.28.58s-9.95-3.1-9.95-3.1z" class="D"></path>
    <g class="C">
      <path d="M583.61,466.62a25.61,25.61,0,0,1,1.2-2.91,25.93,25.93,0,0,1,1.91-2.49,6,6,0,0,0-3.11,5.4Z"></path>
      <path d="M580.79 465.34c.13 0 .41-1.26 1.13-2.67s1.57-2.41 1.47-2.5a5.11 5.11 0 0 0-1.88 2.29 5.24 5.24 0 0 0-.72 2.88z"></path>
      <path d="M578.14,464.63a19.54,19.54,0,0,1,.64-2.86,19.16,19.16,0,0,1,1.47-2.54,5.09,5.09,0,0,0-2.11,5.4Z"></path>
      <path d="M578.62 461.13a4.73 4.73 0 0 0 .29-2 9.26 9.26 0 0 0-.27-2.2 9.61 9.61 0 0 0-.4-1.26 1.47 1.47 0 0 0-.44-.66.73.73 0 0 0-.93 0 1.22 1.22 0 0 0-.36.77 4.31 4.31 0 0 0 0 .71 5.64 5.64 0 0 0 .16 1.33 8 8 0 0 0 .84 2.07 5.65 5.65 0 0 0 1.21 1.63c.07 0-.39-.67-.93-1.78a9.37 9.37 0 0 1-.71-2 6.2 6.2 0 0 1-.13-1.24c0-.42 0-.94.25-1.14a.28.28 0 0 1 .36 0 1.24 1.24 0 0 1 .3.48 12 12 0 0 1 .41 1.19 10.84 10.84 0 0 1 .35 2.12v1.98z"></path>
      <path d="M578.59 460.85a4 4 0 0 0-1.75-.28 7.85 7.85 0 0 0-1.92.24 3.87 3.87 0 0 0-1.11.41 1.14 1.14 0 0 0-.61 1.23 1.35 1.35 0 0 0 1 1 2.47 2.47 0 0 0 1.21 0 4.6 4.6 0 0 0 1.76-.87 4.73 4.73 0 0 0 1.26-1.24 11.44 11.44 0 0 0-1.44 1 4.87 4.87 0 0 1-1.66.72 2.15 2.15 0 0 1-1 0 .91.91 0 0 1-.66-.64.72.72 0 0 1 .41-.76 4.15 4.15 0 0 1 1-.38 9.33 9.33 0 0 1 1.82-.32c1.01-.14 1.68-.03 1.69-.11z"></path>
      <path d="M587.78 466.91a13.84 13.84 0 0 1 .53-2.44 13.31 13.31 0 0 1 1.33-2.12c0-.12-1.18.53-1.75 1.94a3.16 3.16 0 0 0-.11 2.62z"></path>
      <path d="M568.88 468.16a5.71 5.71 0 0 0 1 .49 22.88 22.88 0 0 0 3 .93 42.26 42.26 0 0 0 10.34 1c4.06 0 7.72-.22 10.37-.33l3.14-.17a5.7 5.7 0 0 0 1.14-.12 5.49 5.49 0 0 0-1.15-.05h-3.14l-10.36.2a48.31 48.31 0 0 1-10.27-.84c-2.53-.53-4.04-1.2-4.07-1.11z"></path>
      <path d="M568.08 468.77a21.2 21.2 0 0 0 2-.91 9.45 9.45 0 0 1 5.12-.86 8.17 8.17 0 0 1 4.43 2.64 16.55 16.55 0 0 0 1.56 1.59 8.65 8.65 0 0 0-1.32-1.81 11 11 0 0 0-1.8-1.68 6.34 6.34 0 0 0-2.8-1.18 8.88 8.88 0 0 0-5.33 1 7.22 7.22 0 0 0-1.86 1.21z"></path>
    </g>
    <path d="M543.59 448.81L517 466.28c-1.38 1 .21 6 2.6 5.15 1.13-.41 22.63-6.39 24.94-7.29s8.54-6 8.54-6z" class="D"></path>
    <g class="C">
      <path d="M536 462.08a4.9 4.9 0 0 0-1.72-2.74 4.76 4.76 0 0 0-2.88-1.46 25 25 0 0 1 2.58 1.79 28.4 28.4 0 0 1 2.02 2.41z"></path>
      <path d="M538.28 460a6.75 6.75 0 0 0-4-4.13c-.07.11 1.06.79 2.16 1.93s1.72 2.26 1.84 2.2z"></path>
      <path d="M540.59 458.52a5.08 5.08 0 0 0-3.65-4.5 18.37 18.37 0 0 1 2.17 2 19.06 19.06 0 0 1 1.48 2.5z"></path>
      <path d="M539.07 455.33c.06 0-.29-.72-.58-1.91a10.39 10.39 0 0 1-.3-2.13 10.73 10.73 0 0 1 0-1.26 1.29 1.29 0 0 1 .14-.54.26.26 0 0 1 .35-.08c.3.12.45.61.59 1a6.06 6.06 0 0 1 .25 1.21 8.67 8.67 0 0 1-.07 2.14l-.35 2a5.49 5.49 0 0 0 .67-1.93 8 8 0 0 0 .16-2.22 6.34 6.34 0 0 0-.24-1.32 6.93 6.93 0 0 0-.25-.67 1.23 1.23 0 0 0-.58-.62.73.73 0 0 0-.9.24 1.57 1.57 0 0 0-.21.77 9.69 9.69 0 0 0 0 1.32 9.51 9.51 0 0 0 .41 2.18 4.64 4.64 0 0 0 .91 1.82z"></path>
      <path d="M539 455.06c0 .07.64-.24 1.67-.49a9.3 9.3 0 0 1 1.84-.25 3.69 3.69 0 0 1 1.05.07.69.69 0 0 1 .61.6.91.91 0 0 1-.43.81 2.15 2.15 0 0 1-1 .32 4.93 4.93 0 0 1-1.81-.18 11 11 0 0 0-1.67-.5 4.63 4.63 0 0 0 1.58.8 4.56 4.56 0 0 0 1.94.29 2.52 2.52 0 0 0 1.16-.36 1.36 1.36 0 0 0 .63-1.22 1.14 1.14 0 0 0-1-1 4.3 4.3 0 0 0-1.17-.06 8 8 0 0 0-1.91.36 4 4 0 0 0-1.49.81z"></path>
      <path d="M522.9 470.49s.43-.26.63-1a3.8 3.8 0 0 0-.48-2.78 10.53 10.53 0 0 0-.86-1.28 4.62 4.62 0 0 0-.87-.93 1.51 1.51 0 0 0-.82-.35c-.21 0-.32 0-.32.07a2.44 2.44 0 0 1 .93.52 6 6 0 0 1 .74.93l.8 1.26a3.94 3.94 0 0 1 .56 2.5 10.21 10.21 0 0 1-.31 1.06z"></path>
      <path d="M532.1 463.62a3.86 3.86 0 0 0-3.16-3.78 14 14 0 0 1 1.91 1.61 14.81 14.81 0 0 1 1.25 2.17z"></path>
      <path d="M550.48 459.07a8.75 8.75 0 0 0-1.12.77 32 32 0 0 1-3.16 1.94 40.8 40.8 0 0 1-5 2.23l-6.42 2.08-11.79 3.44-3.57 1.1a8.16 8.16 0 0 0-1.28.46 8.85 8.85 0 0 0 1.33-.29l3.6-1 11.84-3.32 6.44-2.12a38 38 0 0 0 5-2.34 25 25 0 0 0 3.11-2.07 6.47 6.47 0 0 0 1.02-.88z"></path>
      <path d="M551.43 459.42a7.06 7.06 0 0 0-2.17-.58 8.9 8.9 0 0 0-5.38.66 6.35 6.35 0 0 0-2.31 2 11 11 0 0 0-1.2 2.14 8.25 8.25 0 0 0-.71 2.13 16.62 16.62 0 0 0 1-2 8.11 8.11 0 0 1 3.42-3.86 9.39 9.39 0 0 1 5.14-.74l2.21.25z"></path>
    </g>
    <g class="D">
      <path d="M482.13,348.84l21,2,8.54,2.42a23.24,23.24,0,0,1,9.72,5.57l27.51,26.41,5-41,13.75,1.19-2.3,52.8a15.72,15.72,0,0,1-15,10.95,16.28,16.28,0,0,1-11.07-4.55l-19.59-18.42-.58,26.32,13.59,11-52.41,29.2s-2.84-11.16-1.55-36c.24-4.56-8.12-18.4-8.76-22.47-2.45-15.65-2.07-38.54-2.07-38.54Z"></path>
      <path d="M469.22,355.22s-10.63,3.95-13.2,12.27c-2.28,7.39-9.89,48.91-9.89,48.91l-7.55,44,15.81.6,18.19-74.9Z"></path>
    </g>
    <g class="C">
      <path d="M468.51 403.76a3.94 3.94 0 0 0 .32-.89l.7-2.48 2-8.27 1.71-8.34.43-2.54a3.72 3.72 0 0 0 .09-.95 4.42 4.42 0 0 0-.27.92l-.57 2.51-1.83 8.3-1.9 8.29-.56 2.52a4.21 4.21 0 0 0-.12.93z"></path>
      <path d="M565.25 349.34a5 5 0 0 0 .41-2.07 5.37 5.37 0 0 0 0-2.12 5 5 0 0 0-.41 2.08 5.31 5.31 0 0 0 0 2.11z"></path>
      <path d="M561.23 349.46a5.43 5.43 0 0 0 .34-2.2 5.85 5.85 0 0 0-.11-2.23 5.46 5.46 0 0 0-.34 2.21 5.78 5.78 0 0 0 .11 2.22z"></path>
      <path d="M557.24 349.21a7.35 7.35 0 0 0 .36-2.46 6.7 6.7 0 0 0-.09-2.48 6.94 6.94 0 0 0-.36 2.46 6.7 6.7 0 0 0 .09 2.48z"></path>
      <path d="M549.51 391.52a14.81 14.81 0 0 0-.15-3.63 14.48 14.48 0 0 0-.6-3.59 14.81 14.81 0 0 0 .15 3.63 14.06 14.06 0 0 0 .6 3.59z"></path>
      <path d="M451.79 456.38a5.66 5.66 0 0 0-.61 2.2 5.92 5.92 0 0 0-.17 2.28 5.66 5.66 0 0 0 .61-2.2 5.92 5.92 0 0 0 .17-2.28z"></path>
      <path d="M446.59 456.37a5.08 5.08 0 0 0-.56 2 4.94 4.94 0 0 0-.12 2.07 4.74 4.74 0 0 0 .57-2 5.08 5.08 0 0 0 .11-2.07z"></path>
      <path d="M441.66 455.87a7.39 7.39 0 0 0-.52 2.26 7.65 7.65 0 0 0-.25 2.3 5 5 0 0 0 .7-2.22 5.28 5.28 0 0 0 .07-2.34z"></path>
      <path d="M460.69 360.34c0 .09 1.1 0 2.81.38a13.34 13.34 0 0 1 6 3 13.5 13.5 0 0 1 3.77 5.58c.59 1.65.67 2.75.75 2.74a2.16 2.16 0 0 0 0-.78 11.16 11.16 0 0 0-.44-2.06 12.77 12.77 0 0 0-3.77-5.82 12.93 12.93 0 0 0-6.27-3 11 11 0 0 0-2.1-.15 2.67 2.67 0 0 0-.75.11z"></path>
      <path d="M517.46 397.43c-.09 0 .41-1.3.91-3.41a29.82 29.82 0 0 0-.89-16.7l-1.27-3.29c.08-.04.22.27.52.8a20 20 0 0 1 1.09 2.36 26.85 26.85 0 0 1 .9 16.92 17.87 17.87 0 0 1-.84 2.46 3.59 3.59 0 0 1-.42.86z"></path>
      <path d="M518.8 411.94a3.63 3.63 0 0 1-.91.06c-.58 0-1.43 0-2.47-.11a42.33 42.33 0 0 1-15.65-4.48l-2.16-1.22a3.1 3.1 0 0 1-.74-.53c0-.07 1.17.55 3.06 1.42a51.71 51.71 0 0 0 15.53 4.44 33.18 33.18 0 0 1 3.34.42z"></path>
    </g>
    <g>
      <g opacity=".2">
        <path d="M495.6 404.62c1.64 1.48 4.2 1.69 6.4 1.65l6.61-.44a8.19 8.19 0 0 1 6 2.27 3 3 0 0 1 .86 1.81 1.62 1.62 0 0 1-1 1.61 2.57 2.57 0 0 1-1.26 0c-6.19-1.28-12.84-2.73-17.63-6.85"></path>
      </g>
    </g>
    <g>
      <g opacity=".2">
        <path d="M475.35,406.58c1.63-.47,1.89-2.38,2-4.07a36.86,36.86,0,0,0-3.93-20.29c-.77,4.59-2.05,9.38-3,14.06Z"></path>
      </g>
    </g>
    <g class="G">
      <path d="M472.5 387.44a4 4 0 0 0-1.34-.6 4.52 4.52 0 0 0-3.69 1.06c-1.34 1-2.08 3-2.49 5.26s-.66 4.88-2.35 7.11a5.51 5.51 0 0 1-3.39 2 27.38 27.38 0 0 1-3.61.26 7.78 7.78 0 0 0-5.35 2.2 8.23 8.23 0 0 0-2.12 3.38l-.37 1.45a1.28 1.28 0 0 1 0-.39 4.87 4.87 0 0 1 .18-1.11 8.15 8.15 0 0 1 4.4-5.26 8.9 8.9 0 0 1 3.23-.75 28.59 28.59 0 0 0 3.54-.28 5 5 0 0 0 3.08-1.86 9.46 9.46 0 0 0 1.56-3.38c.32-1.18.49-2.37.73-3.5.44-2.24 1.24-4.35 2.73-5.45a4.65 4.65 0 0 1 4-1 2.81 2.81 0 0 1 1 .51l.26.35z"></path>
      <path d="M531.9 368.09a6.74 6.74 0 0 1-1.31 2 9.94 9.94 0 0 1-5.77 3.09 9.44 9.44 0 0 1-4.57-.36 15 15 0 0 1-4.46-2.78 25.09 25.09 0 0 0-4.59-3.33 7.42 7.42 0 0 0-2.82-.78 8.84 8.84 0 0 0-3 .38 20.27 20.27 0 0 0-5.39 2.79 32.93 32.93 0 0 1-5 3 12.73 12.73 0 0 1-5.14 1.1 14.7 14.7 0 0 1-4.52-.75 13.63 13.63 0 0 1-5.54-3.55 11 11 0 0 1-1.1-1.41 2.51 2.51 0 0 1-.31-.54c.05 0 .49.71 1.56 1.81a13.86 13.86 0 0 0 5.5 3.34 13.08 13.08 0 0 0 9.36-.43 35.54 35.54 0 0 0 4.87-3 20.07 20.07 0 0 1 5.52-2.87 8.86 8.86 0 0 1 3.18-.39 7.84 7.84 0 0 1 3 .83 25.55 25.55 0 0 1 4.68 3.42 14.64 14.64 0 0 0 4.3 2.74 9.13 9.13 0 0 0 4.37.41 10 10 0 0 0 5.67-2.87 15.74 15.74 0 0 0 1.51-1.85z"></path>
      <path d="M557.79 407.72a13.82 13.82 0 0 1-.41-1.84A23.53 23.53 0 0 0 556 401a11.16 11.16 0 0 0-1.89-2.92 7.34 7.34 0 0 0-3.27-2.16 13.58 13.58 0 0 0-4.39-.44 18.24 18.24 0 0 1-4.89-.35 10.78 10.78 0 0 1-4.27-2.45c-1.19-1-2.19-2.2-3.17-3.24-1.92-2.11-4-3.81-6.05-4.31a6.09 6.09 0 0 0-4.83.73 5.89 5.89 0 0 0-1.3 1.32 2.52 2.52 0 0 1 .21-.44 4.17 4.17 0 0 1 1-1 6.21 6.21 0 0 1 5-.92c2.22.49 4.35 2.24 6.31 4.34l3.16 3.18a10.28 10.28 0 0 0 4.07 2.34c3.14.79 6.42-.15 9.29.83a7.8 7.8 0 0 1 3.44 2.33 11.05 11.05 0 0 1 1.9 3.07 20.53 20.53 0 0 1 1.3 5l.18 1.39a1.52 1.52 0 0 1-.01.42z"></path>
      <path d="M518.77 392.56a1.93 1.93 0 0 1-.51.08 6.53 6.53 0 0 1-1.48-.05 18.66 18.66 0 0 1-5.12-1.85 21.38 21.38 0 0 0-3.45-1.34 9.19 9.19 0 0 0-4.16-.14c-2.93.57-5.78 2.45-8.28 4.82s-4.69 5-7.12 6.83a15.92 15.92 0 0 1-7.36 3.3 15.12 15.12 0 0 1-5.44-.08 11.11 11.11 0 0 1-1.44-.37 2 2 0 0 1-.48-.19c0-.05.7.17 1.95.36a15.91 15.91 0 0 0 12.47-3.4c2.37-1.85 4.52-4.4 7.06-6.83s5.48-4.34 8.55-4.91a9.61 9.61 0 0 1 4.36.19 20.72 20.72 0 0 1 3.5 1.43 20.32 20.32 0 0 0 5 2 19.34 19.34 0 0 0 1.95.15z"></path>
      <path d="M509.59 410.18a6.54 6.54 0 0 0-2 .82c-1 .72-1.16 1.74-1.31 1.71s-.11-.28 0-.71a2.87 2.87 0 0 1 1-1.41 2.76 2.76 0 0 1 1.61-.59c.46 0 .71.11.7.18z"></path>
      <path d="M518.16 406.1a6.23 6.23 0 0 1-1.28 3 6.32 6.32 0 0 1-2.3 2.35 29 29 0 0 1 1.87-2.64 31.64 31.64 0 0 1 1.71-2.71z"></path>
      <path d="M483.22 420.23c-.05.14-1.13-.16-2.48-.16s-2.42.27-2.47.12a3.63 3.63 0 0 1 2.48-.64 3.7 3.7 0 0 1 2.47.68z"></path>
      <path d="M454.52 371.69s.23.12.65.24a3 3 0 0 0 1.82-.16 5 5 0 0 0 2.1-1.75 25.3 25.3 0 0 1 2.23-2.77 11.84 11.84 0 0 1 5.67-3.11 11.08 11.08 0 0 1 1.95-.25c.47 0 .72 0 .72.07s-1 .1-2.58.54a12.58 12.58 0 0 0-5.39 3.12 26.94 26.94 0 0 0-2.22 2.71 5.3 5.3 0 0 1-2.36 1.79 3 3 0 0 1-2 0c-.45-.2-.61-.42-.59-.43z"></path>
      <path d="M508,352c.05,0-.31.61-1.13,1.31a9.45,9.45,0,0,1-3.72,1.93,9.31,9.31,0,0,1-4.19.14,3.69,3.69,0,0,1-1.63-.59A12.24,12.24,0,0,1,499,355a11.34,11.34,0,0,0,4-.28,11.21,11.21,0,0,0,3.62-1.71A12.25,12.25,0,0,1,508,352Z"></path>
      <path d="M463.14 426.52c0 .05-.42 0-1.15.2a7.49 7.49 0 0 0-2.8 1.36 11.54 11.54 0 0 0-3 3.54c-.9 1.53-1.64 3.35-2.59 5.2a13.93 13.93 0 0 1-3.56 4.68 6.58 6.58 0 0 1-4.54 1.54 5 5 0 0 1-3-1.12 3 3 0 0 1-.6-.65c-.11-.17-.16-.26-.14-.27s.27.33.87.77a5.14 5.14 0 0 0 2.92.91 6.37 6.37 0 0 0 4.23-1.55 14.1 14.1 0 0 0 3.4-4.55l2.64-5.2a11.48 11.48 0 0 1 3.18-3.6 7 7 0 0 1 3-1.26 4.25 4.25 0 0 1 .88 0c.12-.03.26-.02.26 0z"></path>
    </g>
    <g>
      <g opacity=".3">
        <path d="M548.47,384.68a9,9,0,0,0-1.8,7.83c.11.45.31.94.75,1.07a1,1,0,0,0,1-.38,2.63,2.63,0,0,0,.42-1,16,16,0,0,0-.14-7.73"></path>
      </g>
    </g>
    <g class="G">
      <path d="M567.2 361.57a14.56 14.56 0 0 0-2.52 3 23.78 23.78 0 0 0-1.82 3.89l-1.93 5a12.72 12.72 0 0 1-3.11 4.38 8 8 0 0 1-4 1.82 5.46 5.46 0 0 1-2.94-.38 4 4 0 0 1-.69-.41c-.15-.11-.22-.18-.21-.19s.34.18 1 .41a5.62 5.62 0 0 0 2.81.2 7.74 7.74 0 0 0 3.75-1.81 12.63 12.63 0 0 0 3-4.24l2-4.92a21.88 21.88 0 0 1 2-3.91 10.48 10.48 0 0 1 1.93-2.23 3.1 3.1 0 0 1 .73-.61z"></path>
      <path d="M568 350.46a6.3 6.3 0 0 1-1.76 1.54 14.5 14.5 0 0 1-10.83 2.14 6.37 6.37 0 0 1-2.21-.75c0-.09.87.18 2.27.38a16.22 16.22 0 0 0 10.58-2.09c1.25-.68 1.95-1.29 1.95-1.22z"></path>
    </g>
    <g class="C">
      <path d="M575.41 456L510 413.89c-2.57-.86-8.79-4.93-15-3.22s-11.79 7.3-14.58 15.44-3 26.38-3 26.38 4.93 14.37 14.58 17.37a24.23 24.23 0 0 0 2.51.63 29.68 29.68 0 0 0 30.35-13.11l1.41-2.14 41.75 14.89z"></path>
      <path d="M596.84 407.89a12.26 12.26 0 0 1 7.72 11.36c.06 16.51-33.36 34.75-33.36 34.75l-44.48-29.48v-3.12s57.28-20.59 70.12-13.51z"></path>
    </g>
    <g class="I">
      <path d="M497.66 444.62l.35.16 1 .41 4 1.53 14.81 5.58 22.27 8.21 27.83 9.83.18.06.09-.17 4.91-9.37 2.5-4.78.1-.19-.18-.11-47.92-30.43-14.4-9.08-3.91-2.44-1-.63-.35-.2.33.24 1 .66 3.87 2.51 14.32 9.2 47.86 30.55-.08-.29-2.5 4.78-4.94 9.35.27-.11-27.83-9.79-22.31-8.1-14.85-5.44-4-1.46-1-.37z"></path>
      <path d="M549.25 439.38a9.23 9.23 0 0 0 1.16-.79l3-2.29c2.55-2 6-4.76 9.74-8s7-6.21 9.34-8.43l2.73-2.66a7.29 7.29 0 0 0 1-1 9 9 0 0 0-1.07.9l-2.83 2.55-9.41 8.31-9.65 8.06-3 2.4a8.58 8.58 0 0 0-1.01.95z"></path>
      <path d="M584.29 414.06a8.74 8.74 0 0 0-4.29.39 8.63 8.63 0 0 0-3.81 2c.07.12 1.69-.92 3.94-1.57s4.16-.68 4.16-.82z"></path>
      <path d="M580.45 411.46a6.78 6.78 0 0 0-4 5c.13 0 .62-1.35 1.74-2.72s2.34-2.17 2.26-2.28z"></path>
    </g>
    <g class="C">
      <path d="M599.29 463.74c0-.05-.53-.16-1.15.35a4.14 4.14 0 0 0-1.28 2.58 5.07 5.07 0 0 0 .4 2.85c.32.67.66 1 .7 1s-.18-.42-.4-1.08a5.67 5.67 0 0 1-.25-2.67 4.46 4.46 0 0 1 1.05-2.41c.47-.53.94-.55.93-.62z"></path>
      <path d="M470.51,316.58a6.32,6.32,0,0,0-9.2.4,10.76,10.76,0,0,0-2.12,5.58,26.88,26.88,0,0,1-1.17,5.92,6.07,6.07,0,0,1-4.2,4c-1.5.28-3.28-.18-4.43.82a2.88,2.88,0,0,0-.26,3.58,6.68,6.68,0,0,0,3.08,2.31c.47.21,1,.51,1,1,0,.67-.86.91-1.48,1.17-1.86.79-2.4,3.44-1.36,5.18a6,6,0,0,0,5.19,2.59,17.53,17.53,0,0,0,5.88-1.35,2.28,2.28,0,0,0-.06,2.9,3.14,3.14,0,0,0,2.84,1.06,5.12,5.12,0,0,0,2.76-1.43,9.93,9.93,0,0,0,2.71-5.45,32.58,32.58,0,0,0,.36-6.17,165.5,165.5,0,0,1,1.57-22"></path>
    </g>
    <path d="M491.75 302.38a15.21 15.21 0 0 1 14.5 15.18c0 6.29-.09 13.13-.49 17.19-.93 9.44-8 11.05-8 11.05l.54 11.43c.3 5.3-4 10-9.72 10.42h0c-5.61.45-10.42-3.39-10.8-8.64l-1.9-40.73a15.21 15.21 0 0 1 15.89-15.9z" class="K"></path>
    <g class="C">
      <path d="M504.1 321.68A1.2 1.2 0 0 1 503 323a1.14 1.14 0 0 1-1.3-1 1.2 1.2 0 0 1 1.09-1.28 1.14 1.14 0 0 1 1.31.96z"></path>
      <path d="M504.07 319.82c-.14.17-1.09-.45-2.38-.37s-2.19.78-2.34.63.06-.35.45-.68a3.39 3.39 0 0 1 1.87-.7 3.3 3.3 0 0 1 1.91.49c.42.29.56.56.49.63z"></path>
      <path d="M490.66 322.39a1.21 1.21 0 0 1-1.08 1.28 1.15 1.15 0 0 1-1.3-1 1.2 1.2 0 0 1 1.08-1.28 1.15 1.15 0 0 1 1.3 1z"></path>
      <path d="M490.63 321.09c-.14.17-1.08-.45-2.37-.37s-2.2.78-2.35.63.06-.36.46-.68a3.25 3.25 0 0 1 1.86-.7 3.2 3.2 0 0 1 1.91.49c.41.28.56.54.49.63z"></path>
      <path d="M495.89 330.39a8.24 8.24 0 0 1 2.07-.51c.33-.05.63-.13.68-.36a1.75 1.75 0 0 0-.28-1l-1.12-2.45a42.91 42.91 0 0 1-2.58-6.43 44.26 44.26 0 0 1 3.09 6.21l1.08 2.47a1.89 1.89 0 0 1 .25 1.28.86.86 0 0 1-.52.52 2.54 2.54 0 0 1-.55.11 9.13 9.13 0 0 1-2.12.16z"></path>
    </g>
    <path d="M497.77,345.81A25.61,25.61,0,0,1,485,343s3.49,6.72,12.89,5.5Z" fill="#995037"></path>
    <g class="C">
      <path d="M486.38 317.5c.15.23 1.09-.16 2.26-.42s2.19-.32 2.23-.59-1.06-.66-2.44-.35-2.21 1.16-2.05 1.36z"></path>
      <path d="M499.16 315.18c.06.26 1.12.23 2.39.25s2.33.07 2.4-.19-1-.77-2.39-.78-2.47.47-2.4.72z"></path>
      <path d="M478.26 354.12c-.09-1.94 2.08-10.36 2.95-15.53s-2.52-6-3.06-9.06a10.52 10.52 0 0 1 1-5.95c4.94 1.77 6.89-1.75 9.59-3.83 2.86-2.22 3.49-4.94 4.66-8.37s2.54-5.56 6.15-5.9a10.72 10.72 0 0 1 4.8 5.51c1.1 3.21 2 15.73 2 15.73.5-6 5.37-8.52 4.05-17.36-.57-3.81-3.73-9-8.61-9.78-1.42-.23-4.1-.4-4.1-.4-2.91-2.62-4.33-2.54-7.12-3.78-6-2.67-13.26 2.1-17.25 7.33-3.08 4-4.57 9.47-5.41 14.59a42.42 42.42 0 0 0-.23 10.74c.2 2.13-.06 4.83-2.16 6.47-3 2.33-3.78 6.77-1.71 12.69s-5.56 16-5.56 16a47 47 0 0 1 6.8-4.61c3.07-1.61 13.21-4.49 13.21-4.49z"></path>
    </g>
    <path d="M494.33,333.47a1.94,1.94,0,0,0-1.78-.59,1.81,1.81,0,0,0-1.17.75,1.13,1.13,0,0,0,0,1.28,1.31,1.31,0,0,0,1.43.25,4.26,4.26,0,0,0,1.31-.92,1.13,1.13,0,0,0,.28-.34.36.36,0,0,0,0-.4" fill="#995037"></path>
    <g class="C">
      <path d="M491.5 331.83c.17 0 .26 1.14 1.32 1.89s2.28.53 2.3.69-.26.25-.78.3a2.88 2.88 0 0 1-1.92-.51 2.55 2.55 0 0 1-1-1.59c-.11-.48 0-.78.08-.78z"></path>
      <path d="M450.71 329.19a9.48 9.48 0 0 0 .1 1.3 4.67 4.67 0 0 0 .49 1.43 3.29 3.29 0 0 0 1.4 1.36 2.74 2.74 0 0 0 2.3.11 2.92 2.92 0 0 0 1.54-2.12 11.57 11.57 0 0 0 .16-3.09l-.1-3.37a13.48 13.48 0 0 1 1.26-6.41 6.38 6.38 0 0 1 4-3.44 5.09 5.09 0 0 1 3.56.28 3.18 3.18 0 0 1 1 .8 8.38 8.38 0 0 0-1.1-.69 5.1 5.1 0 0 0-3.46-.17 6.2 6.2 0 0 0-3.79 3.36 13.41 13.41 0 0 0-1.2 6.26l.1 3.37a11.85 11.85 0 0 1-.19 3.17 3.2 3.2 0 0 1-1.72 2.29 3 3 0 0 1-2.5-.15 3.43 3.43 0 0 1-1.45-1.48 4.46 4.46 0 0 1-.46-1.49 4 4 0 0 1 .06-1.32z"></path>
    </g>
    <path d="M464.5 349.47a2.45 2.45 0 0 1-.5-.47 3.94 3.94 0 0 1-.73-1.85 5.43 5.43 0 0 1 .54-3.1 11.9 11.9 0 0 1 2.6-3.27 22.07 22.07 0 0 0 3.4-3.68 8.64 8.64 0 0 0 1.19-5.5 57.86 57.86 0 0 1-.48-6.39 8.41 8.41 0 0 1 .78-3.34 6 6 0 0 1 2.44-2.54c2.1-1.19 4.45-1.52 6.37-2.58a10.38 10.38 0 0 0 4.12-4.65l2.43-5.26a11.36 11.36 0 0 1 3.15-4 6.15 6.15 0 0 1 3.93-1.34 4.89 4.89 0 0 1 2.91 1.17 3.65 3.65 0 0 1 1.12 1.64 1.84 1.84 0 0 1 .12.5v.18s0-.24-.2-.66a3.65 3.65 0 0 0-1.14-1.57 4.84 4.84 0 0 0-2.84-1.09 6 6 0 0 0-3.78 1.35 11.06 11.06 0 0 0-3.06 3.9l-2.41 5.27a10.64 10.64 0 0 1-4.23 4.79c-2 1.1-4.33 1.42-6.35 2.58a5.61 5.61 0 0 0-2.32 2.41 8.34 8.34 0 0 0-.76 3.21 58.85 58.85 0 0 0 .47 6.36 8.91 8.91 0 0 1-1.22 5.64 22.21 22.21 0 0 1-3.47 3.7 11.88 11.88 0 0 0-2.59 3.19 5.41 5.41 0 0 0-.58 3 3.87 3.87 0 0 0 1.09 2.4z" class="I"></path>
    <path d="M467 321.09a4.8 4.8 0 0 1 1.19-5.68 21.79 21.79 0 0 0-1 2.75 20 20 0 0 0-.19 2.93z" class="G"></path>
    <path d="M470.25,349.94a22.31,22.31,0,0,0,2.92,14.46,11.36,11.36,0,0,0,3.57,3.94,5.9,5.9,0,0,0,5.13.73,4,4,0,0,0,2.65-4.19c-.4-2.5-3.48-4.07-3.5-6.61,1.12.68,2.64,1.33,3.62.46a2.22,2.22,0,0,0,.37-2.46,9.53,9.53,0,0,0-1.52-2.17,13.6,13.6,0,0,1-2.72-10.35c.15-1,.42-4.14.44-5.16s-.28,0-1-.67a3.17,3.17,0,0,0-2.86-.53,6.08,6.08,0,0,0-2.53,1.59,11.71,11.71,0,0,0-3.48,8.88" class="C"></path>
  </g>
  <g id="G" class="B">
    <g class="H">
      <path d="M200.67 291.12a.59.59 0 0 0-.09-.21l-.32-.59c-.29-.51-.75-1.26-1.39-2.17a23.51 23.51 0 0 0-6.88-6.5 17 17 0 0 0-6.16-2.26 15.17 15.17 0 0 0-7.49.79 12.08 12.08 0 0 0-6.41 5.24c-1.47 2.57-2 5.59-2.81 8.48a15.49 15.49 0 0 1-1.79 4 12.2 12.2 0 0 1-3 3l-3.43 2.49a14.71 14.71 0 0 0-2.79 3 18.56 18.56 0 0 0-2.86 7 24.86 24.86 0 0 0-.38 6.56 49.46 49.46 0 0 0 1.68 9.32l.69 2.48a4.48 4.48 0 0 0 .28.85s0-.3-.18-.88-.35-1.45-.6-2.5a54.5 54.5 0 0 1-1.5-9.3 24.92 24.92 0 0 1 .43-6.44 18.46 18.46 0 0 1 2.83-6.79 14.31 14.31 0 0 1 2.71-2.91c1.06-.86 2.25-1.61 3.42-2.47a12.86 12.86 0 0 0 3.17-3.12 16 16 0 0 0 1.86-4.18c.87-2.94 1.34-5.91 2.75-8.37a11.74 11.74 0 0 1 6.14-5.06 14.94 14.94 0 0 1 7.26-.8 16.54 16.54 0 0 1 6 2.15 23.9 23.9 0 0 1 6.89 6.3l1.47 2.1a5 5 0 0 0 .5.79z"></path>
      <path d="M162.94,301.7c.8-.74,1.18-.23,2.25,0a6.54,6.54,0,0,1,2.88,1.44A12.14,12.14,0,0,1,172,315.86a9.49,9.49,0,0,1-8.71-14.24"></path>
      <path d="M195.58,286.84c.4-1,1-.71,2-1a6.55,6.55,0,0,1,3.23.06,12.13,12.13,0,0,1,9,9.81,9.48,9.48,0,0,1-14-9.11"></path>
      <path d="M155.75,321.8a11,11,0,0,1,17.21.84,13.54,13.54,0,0,1-8.93,3.52,13.82,13.82,0,0,1-9-3.63"></path>
      <path d="M158.43,306.79a11.09,11.09,0,0,1-11.2-13.23,10,10,0,0,1,11.57,13.12"></path>
      <path d="M169.92,289.14a11.09,11.09,0,0,1-15-8.76,10,10,0,0,1,15.27,8.53"></path>
      <path d="M173.77,283.38a11.08,11.08,0,0,1,15,8.76,10,10,0,0,1-15.27-8.54"></path>
      <path d="M178.36,280.27a11.08,11.08,0,0,1-5.9-16.3,10,10,0,0,1,6.28,16.33"></path>
      <path d="M190.12,280.84a11.09,11.09,0,0,1,9.06-14.79,10,10,0,0,1-8.84,15.1"></path>
    </g>
    <path class="C" d="M142.7 360.35l-6.26-39.34 48.02.59-4.73 38.24"></path>
    <g class="D">
      <path d="M163.43,313.83a8.17,8.17,0,0,0,8,.67,8.63,8.63,0,0,0,4.36-6.89,9.8,9.8,0,0,0-8-.4,9.65,9.65,0,0,0-5.29,5.92"></path>
      <path d="M185.38,322.3a8.17,8.17,0,0,0,8,.67,8.61,8.61,0,0,0,4.36-6.89,9.78,9.78,0,0,0-8-.4,9.67,9.67,0,0,0-5.3,5.92"></path>
      <path d="M173.06,303.38a8.19,8.19,0,0,0,6.28,4.95,8.65,8.65,0,0,0,7.44-3.36,9.23,9.23,0,0,0-14.1-2.68"></path>
      <path d="M181.07,313.18a8.22,8.22,0,0,0-7.17,3.55,8.61,8.61,0,0,0-.16,8.15,9.21,9.21,0,0,0,8.48-11.57"></path>
      <path d="M188.81,328.67a8.17,8.17,0,0,0,.19,8,8.6,8.6,0,0,0,7.32,3.59,9.76,9.76,0,0,0-.46-7.95c-1.26-2.3-3.53-3.43-6.38-4.08"></path>
      <path d="M201.57 330.49a5.53 5.53 0 0 0-1.9-1.21 8.3 8.3 0 0 0-2.6-.46 31.69 31.69 0 0 0-3.55.21 10.26 10.26 0 0 1-4.36-.38 6.65 6.65 0 0 1-3.6-3.48 19.56 19.56 0 0 1-1.55-5.31 15.52 15.52 0 0 0-1.85-5.45 19.45 19.45 0 0 0-4.07-4.13 19.8 19.8 0 0 1-3.88-3.94 13.05 13.05 0 0 1-1.94-9 12.63 12.63 0 0 1 2.36-5.81 9.35 9.35 0 0 1 1.15-1.27 2.84 2.84 0 0 1 .46-.39 2.54 2.54 0 0 1-.38.46 12.13 12.13 0 0 0-1.06 1.32 13.17 13.17 0 0 0-.2 14.46 19.73 19.73 0 0 0 3.82 3.82 19.31 19.31 0 0 1 4.17 4.24 15.51 15.51 0 0 1 1.92 5.63A19.42 19.42 0 0 0 186 325a6.27 6.27 0 0 0 3.32 3.29 10.18 10.18 0 0 0 4.19.41 30.32 30.32 0 0 1 3.58-.13 8 8 0 0 1 2.67.56 4.4 4.4 0 0 1 1.44.93 2.4 2.4 0 0 1 .3.34c.05.04.08.08.07.09z"></path>
      <path d="M201.57 330.49a5.53 5.53 0 0 0-1.9-1.21 8.3 8.3 0 0 0-2.6-.46 31.69 31.69 0 0 0-3.55.21 10.26 10.26 0 0 1-4.36-.38 6.65 6.65 0 0 1-3.6-3.48 19.56 19.56 0 0 1-1.55-5.31 15.52 15.52 0 0 0-1.85-5.45 19.45 19.45 0 0 0-4.07-4.13 19.8 19.8 0 0 1-3.88-3.94 13.05 13.05 0 0 1-1.94-9 12.63 12.63 0 0 1 2.36-5.81 9.35 9.35 0 0 1 1.15-1.27 2.84 2.84 0 0 1 .46-.39 2.54 2.54 0 0 1-.38.46 12.13 12.13 0 0 0-1.06 1.32 13.17 13.17 0 0 0-.2 14.46 19.73 19.73 0 0 0 3.82 3.82 19.31 19.31 0 0 1 4.17 4.24 15.51 15.51 0 0 1 1.92 5.63A19.42 19.42 0 0 0 186 325a6.27 6.27 0 0 0 3.32 3.29 10.18 10.18 0 0 0 4.19.41 30.32 30.32 0 0 1 3.58-.13 8 8 0 0 1 2.67.56 4.4 4.4 0 0 1 1.44.93 2.4 2.4 0 0 1 .3.34c.05.04.08.08.07.09z"></path>
      <path d="M109.89,334.52a12.15,12.15,0,0,0-16.44-12,20.26,20.26,0,0,0,16,11.82"></path>
      <path d="M106.72,336.19c-2.35,2.58-2.2,6.73-.52,9.79s4.57,5.23,7.47,7.17a15.77,15.77,0,0,0-6.79-17.9"></path>
      <path d="M118.1,324.1A14,14,0,0,0,134,336.59c-.91-3.78-2.42-7.58-5.34-10.14s-7.52-3.52-10.74-1.36"></path>
      <path d="M118,320.25c-.59-3.44-4-5.93-7.45-6.26s-6.9,1.16-9.68,3.26a12.6,12.6,0,0,0,17.17,1.7"></path>
      <path d="M100.13,349.48c-3.3,2.81-4.12,7.83-2.75,11.94s4.58,7.39,8.18,9.8c1.39-4.08,2.26-8.45,1.53-12.7s-3.29-8.34-7.23-10.07"></path>
      <path d="M117.49,310.61a10.13,10.13,0,0,1,16-.94,8.75,8.75,0,0,1-15.8.4"></path>
      <path d="M121.53,300.7a13.18,13.18,0,0,1-16.8-10.3,29.65,29.65,0,0,1,7.93.11,12.91,12.91,0,0,1,7,3.46,7,7,0,0,1,1.84,6.73"></path>
      <path d="M129.15,298.13a10.78,10.78,0,0,1-.07-16.62,22.62,22.62,0,0,1,4.71,10.05,8.45,8.45,0,0,1,0,4.15,3.82,3.82,0,0,1-2.9,2.72"></path>
    </g>
    <g>
      <g class="F">
        <path d="M109.89,334.52a12.15,12.15,0,0,0-16.44-12,20.26,20.26,0,0,0,16,11.82"></path>
      </g>
    </g>
    <g>
      <g class="F">
        <path d="M106.72,336.19c-2.35,2.58-2.2,6.73-.52,9.79s4.57,5.23,7.47,7.17a15.77,15.77,0,0,0-6.79-17.9"></path>
      </g>
    </g>
    <g>
      <g class="F">
        <path d="M118.1,324.1A14,14,0,0,0,134,336.59c-.91-3.78-2.42-7.58-5.34-10.14s-7.52-3.52-10.74-1.36"></path>
      </g>
    </g>
    <g>
      <g class="F">
        <path d="M118,320.25c-.59-3.44-4-5.93-7.45-6.26s-6.9,1.16-9.68,3.26a12.6,12.6,0,0,0,17.17,1.7"></path>
      </g>
    </g>
    <g>
      <g class="F">
        <path d="M100.13,349.48c-3.3,2.81-4.12,7.83-2.75,11.94s4.58,7.39,8.18,9.8c1.39-4.08,2.26-8.45,1.53-12.7s-3.29-8.34-7.23-10.07"></path>
      </g>
    </g>
    <g>
      <g class="F">
        <path d="M117.49,310.61a10.13,10.13,0,0,1,16-.94,8.75,8.75,0,0,1-15.8.4"></path>
      </g>
    </g>
    <g>
      <g class="F">
        <path d="M121.53,300.7a13.18,13.18,0,0,1-16.8-10.3,29.65,29.65,0,0,1,7.93.11,12.91,12.91,0,0,1,7,3.46,7,7,0,0,1,1.84,6.73"></path>
      </g>
    </g>
    <g>
      <g class="F">
        <path d="M129.15,298.13a10.78,10.78,0,0,1-.07-16.62,22.62,22.62,0,0,1,4.71,10.05,8.45,8.45,0,0,1,0,4.15,3.82,3.82,0,0,1-2.9,2.72"></path>
      </g>
    </g>
    <path d="M142.32 322.28a.92.92 0 0 1 0-.27c0-.21 0-.47.05-.79l.13-3a27.21 27.21 0 0 0-1.78-10.91 16.67 16.67 0 0 0-4.39-6.18 11.74 11.74 0 0 0-8-2.94 10 10 0 0 0-4.5 1.13 8.87 8.87 0 0 0-3.48 3.32c-1.74 2.88-2.18 6.48-2 10s.63 7.12.24 10.56a16.46 16.46 0 0 1-1.32 4.89 10.23 10.23 0 0 1-3 3.87 15 15 0 0 1-4.12 2.11 21.18 21.18 0 0 0-3.88 1.76 14 14 0 0 0-5.09 5.55 13.46 13.46 0 0 0-1.47 6.07 14.34 14.34 0 0 0 .77 4.69 17 17 0 0 0 1.82 3.65s-.07-.06-.18-.2a7 7 0 0 1-.46-.65 12.35 12.35 0 0 1-1.37-2.73 14 14 0 0 1-.87-4.76 13.62 13.62 0 0 1 1.43-6.24 14.43 14.43 0 0 1 5.19-5.75c2.38-1.58 5.51-2 7.93-3.87s3.69-5.15 4.06-8.45-.12-6.86-.25-10.48.27-7.32 2.1-10.32a9.39 9.39 0 0 1 3.69-3.5 10.46 10.46 0 0 1 4.72-1.17 12.14 12.14 0 0 1 8.28 3.09 17 17 0 0 1 4.45 6.36 22.94 22.94 0 0 1 1.51 6.23 34.39 34.39 0 0 1 .13 4.83c0 1.33-.15 2.35-.23 3.05 0 .32-.07.58-.1.78a.84.84 0 0 1-.01.27z" class="D"></path>
    <g>
      <g class="F">
        <path d="M142.32 322.28a.92.92 0 0 1 0-.27c0-.21 0-.47.05-.79l.13-3a27.21 27.21 0 0 0-1.78-10.91 16.67 16.67 0 0 0-4.39-6.18 11.74 11.74 0 0 0-8-2.94 10 10 0 0 0-4.5 1.13 8.87 8.87 0 0 0-3.48 3.32c-1.74 2.88-2.18 6.48-2 10s.63 7.12.24 10.56a16.46 16.46 0 0 1-1.32 4.89 10.23 10.23 0 0 1-3 3.87 15 15 0 0 1-4.12 2.11 21.18 21.18 0 0 0-3.88 1.76 14 14 0 0 0-5.09 5.55 13.46 13.46 0 0 0-1.47 6.07 14.34 14.34 0 0 0 .77 4.69 17 17 0 0 0 1.82 3.65s-.07-.06-.18-.2a7 7 0 0 1-.46-.65 12.35 12.35 0 0 1-1.37-2.73 14 14 0 0 1-.87-4.76 13.62 13.62 0 0 1 1.43-6.24 14.43 14.43 0 0 1 5.19-5.75c2.38-1.58 5.51-2 7.93-3.87s3.69-5.15 4.06-8.45-.12-6.86-.25-10.48.27-7.32 2.1-10.32a9.39 9.39 0 0 1 3.69-3.5 10.46 10.46 0 0 1 4.72-1.17 12.14 12.14 0 0 1 8.28 3.09 17 17 0 0 1 4.45 6.36 22.94 22.94 0 0 1 1.51 6.23 34.39 34.39 0 0 1 .13 4.83c0 1.33-.15 2.35-.23 3.05 0 .32-.07.58-.1.78a.84.84 0 0 1-.01.27z"></path>
      </g>
    </g>
    <g class="D">
      <path d="M212.25 313.7a10.28 10.28 0 0 0 .72-3.52 8.74 8.74 0 0 0-.94-4.07 8.49 8.49 0 0 0-3.91-3.78 8.72 8.72 0 0 0-3.09-.83 10.11 10.11 0 0 0-3.45.4c-2.35.62-4.68 2-7.47 2.51a8.8 8.8 0 0 1-4.32-.1 6.55 6.55 0 0 1-3.53-2.82c-1.68-2.6-2.15-5.87-4.18-8.26a8.14 8.14 0 0 0-3.79-2.48 10.63 10.63 0 0 0-4.43-.45 11.31 11.31 0 0 0-7.37 3.83 17.18 17.18 0 0 0-3.66 6.77 20.38 20.38 0 0 0-.82 6.71 72.21 72.21 0 0 0 1.25 9.81l.45 2.66c0 .28.08.51.11.69a2.18 2.18 0 0 1 0 .24s0-.07-.07-.23l-.16-.68-.55-2.64a65.94 65.94 0 0 1-1.42-9.84 20.55 20.55 0 0 1 .77-6.84 17.62 17.62 0 0 1 3.72-7 13.35 13.35 0 0 1 3.37-2.7 11.65 11.65 0 0 1 8.95-.86 8.72 8.72 0 0 1 4 2.64c2.14 2.57 2.6 5.85 4.21 8.32a6 6 0 0 0 3.25 2.62 8.3 8.3 0 0 0 4.08.11c2.68-.51 5-1.83 7.45-2.45a10.32 10.32 0 0 1 3.59-.39 8.89 8.89 0 0 1 3.22.9 8.66 8.66 0 0 1 4.89 8.18 8.19 8.19 0 0 1-.52 2.66 4.24 4.24 0 0 1-.35.89z"></path>
      <path d="M184.16,296.27a9.35,9.35,0,0,0,8.57.56,8.65,8.65,0,0,0,4.36-6.89,9.84,9.84,0,0,0-8-.41,9.7,9.7,0,0,0-5.29,5.92"></path>
      <path d="M193.27,304.53a9.3,9.3,0,0,0,4,7.6,8.63,8.63,0,0,0,8.16.14,9.82,9.82,0,0,0-3.8-7,9.68,9.68,0,0,0-7.81-1.43"></path>
      <path d="M209.06,302.7a9.36,9.36,0,0,0,8.58-.36,8.63,8.63,0,0,0,3.6-7.31,9.21,9.21,0,0,0-12.59,6.89"></path>
      <path d="M170.9,290.8c-2.3-2-3.85-5.47-3.41-8.08a8.64,8.64,0,0,1,5.3-6.21,9.83,9.83,0,0,1,2.74,7.48,9.72,9.72,0,0,1-4.09,6.81"></path>
      <path d="M109.23 279.49a.59.59 0 0 1 .09-.21l.32-.59a26.35 26.35 0 0 1 1.39-2.17 23.32 23.32 0 0 1 6.87-6.5 17.08 17.08 0 0 1 6.17-2.26 15.17 15.17 0 0 1 7.49.79 12.2 12.2 0 0 1 6.41 5.24c1.47 2.57 1.94 5.59 2.8 8.48a15.49 15.49 0 0 0 1.79 4 12.24 12.24 0 0 0 3.05 3l3.43 2.49a15 15 0 0 1 2.79 3 18.6 18.6 0 0 1 2.85 7 24.45 24.45 0 0 1 .38 6.56 49.59 49.59 0 0 1-1.67 9.32l-.69 2.48a5.64 5.64 0 0 1-.28.85 5 5 0 0 1 .18-.88l.59-2.5a54.16 54.16 0 0 0 1.51-9.3 24.51 24.51 0 0 0-.44-6.44 18.13 18.13 0 0 0-2.83-6.79 14.26 14.26 0 0 0-2.7-2.91c-1.06-.86-2.26-1.61-3.42-2.47a12.89 12.89 0 0 1-3.18-3.12 15.67 15.67 0 0 1-1.85-4.18c-.87-2.94-1.35-5.91-2.76-8.37a11.72 11.72 0 0 0-6.13-5.06 15 15 0 0 0-7.26-.8 16.41 16.41 0 0 0-6 2.15 24 24 0 0 0-6.9 6.3l-1.46 2.11a8.72 8.72 0 0 1-.54.78z"></path>
      <path d="M147,290.07c-.79-.74-1.18-.22-2.25,0a6.59,6.59,0,0,0-2.88,1.44,12.16,12.16,0,0,0-3.94,12.75A9.48,9.48,0,0,0,146.59,290"></path>
      <path d="M114.32,275.21c-.4-1-1-.71-2-1a6.63,6.63,0,0,0-3.22.06,12.16,12.16,0,0,0-9,9.81A9.49,9.49,0,0,0,114,275"></path>
      <path d="M154.14,310.17a11,11,0,0,0-17.2.84,13.52,13.52,0,0,0,8.92,3.52,13.84,13.84,0,0,0,9-3.63"></path>
      <path d="M151.46,295.16a11.08,11.08,0,0,0,11.2-13.23,10,10,0,0,0-11.57,13.12"></path>
      <path d="M140,277.51a11.1,11.1,0,0,0,15-8.76,9.95,9.95,0,0,0-15.27,8.53"></path>
      <path d="M136.12,271.75a11.1,11.1,0,0,0-15,8.76A10,10,0,0,0,136.44,272"></path>
      <path d="M131.54,268.64a11.09,11.09,0,0,0,5.9-16.3,10,10,0,0,0-6.29,16.33"></path>
      <path d="M119.77,269.21a11.09,11.09,0,0,0-9-14.79,9.95,9.95,0,0,0,8.83,15.1"></path>
    </g>
    <path class="C" d="M135.82 355.79l3.68 4.56h45.2l3.08-4.56h-51.96z"></path>
    <g class="I">
      <path d="M186.78 355.75c0 .14-11.1.26-24.8.26s-24.81-.12-24.81-.26 11.11-.26 24.81-.26l24.8.26z"></path>
      <path d="M181.7 338.59s-.08.14-.28.37a10.16 10.16 0 0 1-.92 1 16.83 16.83 0 0 1-4 2.8 17.74 17.74 0 0 1-7.05 1.81 17.44 17.44 0 0 1-4.32-.36 25.78 25.78 0 0 1-4.4-1.46l-8.14-3.48a14.12 14.12 0 0 0-7-.67 9 9 0 0 0-4.31 2c-.86.75-1.19 1.31-1.24 1.28a2.19 2.19 0 0 1 .23-.41 6.78 6.78 0 0 1 .87-1 8.93 8.93 0 0 1 4.37-2.21 14.08 14.08 0 0 1 7.26.58c2.64.81 5.31 2.22 8.19 3.45a25.66 25.66 0 0 0 4.31 1.44 16.9 16.9 0 0 0 4.19.38 17.82 17.82 0 0 0 6.91-1.66 21.43 21.43 0 0 0 5.33-3.86z"></path>
      <path d="M182.15 335.06a1.68 1.68 0 0 1-.31.35 10.18 10.18 0 0 1-1 .9 18.79 18.79 0 0 1-4.18 2.6 19.56 19.56 0 0 1-7.1 1.69 18.89 18.89 0 0 1-4.33-.29 27.71 27.71 0 0 1-4.47-1.26l-8.34-3.06a16.62 16.62 0 0 0-7.09-.64 10.53 10.53 0 0 0-4.47 1.71c-.94.66-1.35 1.16-1.39 1.12s.08-.14.28-.37a7.34 7.34 0 0 1 1-.91 10.13 10.13 0 0 1 4.53-1.91 16.38 16.38 0 0 1 7.28.54c2.67.72 5.43 2 8.38 3a29.08 29.08 0 0 0 4.39 1.25 19.21 19.21 0 0 0 4.22.32 19.79 19.79 0 0 0 7-1.56 24 24 0 0 0 5.6-3.48z"></path>
    </g>
  </g>
  <g id="H" class="B">
    <path class="D" d="M76.9 402.38h96.13v64.34H76.9z"></path>
    <g>
      <g class="F">
        <path d="M76.9 402.38h96.13v64.34H76.9z"></path>
      </g>
    </g>
    <g class="D">
      <path d="M153.53 402.47h7.63v13.05h-7.63z"></path>
      <path d="M152.69 453.68h7.63v13.05h-7.63z"></path>
    </g>
    <g class="C">
      <path d="M104.41 466.59c-.14 0-.26-14.42-.26-32.21l.26-32.21c.14 0 .26 14.42.26 32.21l-.26 32.21z"></path>
      <path d="M138.49 437.42c0 .15-13.85.26-30.94.26s-30.95-.11-30.95-.26 13.85-.26 31-.26l30.89.26z"></path>
      <path d="M105.94 402.23a17.32 17.32 0 0 1 2.23-1.66 25 25 0 0 1 12.78-4 4.7 4.7 0 0 1 1.61.13 1.47 1.47 0 0 1 1.06 1.34 2.13 2.13 0 0 1-.68 1.64 4.39 4.39 0 0 1-1.56.91 30.42 30.42 0 0 1-15.83 1.54h-.2v-.2a38.35 38.35 0 0 1 2.31-10 35.37 35.37 0 0 1 2.32-5 6.56 6.56 0 0 1 1.9-2.17 3.54 3.54 0 0 1 2.92-.55 3.06 3.06 0 0 1 2 2.26 5 5 0 0 1-.31 3 26 26 0 0 1-3.15 5.15 33.67 33.67 0 0 1-9.23 8.32l-.1.06h-.1l-1.1-.28-1.12-.38a19.41 19.41 0 0 1-8.06-5.68 18.46 18.46 0 0 1-2.63-4.1 4.59 4.59 0 0 1-.62-2.4 1.31 1.31 0 0 1 .8-1.11 1.86 1.86 0 0 1 1.32.06 19.46 19.46 0 0 1 11.1 13.3l-.45.14a52.27 52.27 0 0 1-3.83-19.78 5.94 5.94 0 0 1 .4-2.25 2.38 2.38 0 0 1 .69-.95 1.79 1.79 0 0 1 1.11-.37 2.23 2.23 0 0 1 1.81 1.18 6.39 6.39 0 0 1 .77 1.91 57.37 57.37 0 0 1 .95 7.18 55.53 55.53 0 0 1-.25 10.18l-.39 2.67-.13.69c-.03.18 0 .23-.06.22a2 2 0 0 1 0-.23q0-.25.09-.69l.32-2.67a59.7 59.7 0 0 0 .12-10.15 56.69 56.69 0 0 0-1-7.12 5.76 5.76 0 0 0-.74-1.8 1.89 1.89 0 0 0-1.51-1 1.61 1.61 0 0 0-1.45 1.11 5.45 5.45 0 0 0-.36 2.11 52.21 52.21 0 0 0 3.88 19.59l-.45.14a19 19 0 0 0-10.81-12.92 1.41 1.41 0 0 0-1-.07.82.82 0 0 0-.49.71 4.08 4.08 0 0 0 .59 2.11 17.73 17.73 0 0 0 2.54 4 19 19 0 0 0 7.85 5.53l1.09.37 1.07.27h-.19a33.4 33.4 0 0 0 9.09-8.19 25.89 25.89 0 0 0 3.09-5 4.4 4.4 0 0 0 .29-2.71 2.55 2.55 0 0 0-1.64-1.91 3.09 3.09 0 0 0-2.51.47 6.17 6.17 0 0 0-1.75 2 36.23 36.23 0 0 0-2.3 4.9 38.19 38.19 0 0 0-2.24 9.92l-.17-.23a30.24 30.24 0 0 0 15.62-1.43 4.3 4.3 0 0 0 1.45-.83 1.78 1.78 0 0 0 .59-1.38 1.15 1.15 0 0 0-.83-1.06 4.4 4.4 0 0 0-1.5-.12 24.81 24.81 0 0 0-5.54.75 25.17 25.17 0 0 0-7.18 3l-1.72 1.14-.58.39z"></path>
    </g>
    <path class="D" d="M138.3 360.64h158.6v106.15H138.3z"></path>
    <g>
      <g opacity=".2">
        <path d="M241.76 360.64h55.14v106.15h-55.14z"></path>
      </g>
    </g>
    <g class="D">
      <path d="M264.73 360.78h12.59v21.53h-12.59z"></path>
      <path d="M263.35 445.27h12.59v21.53h-12.59z"></path>
    </g>
    <path d="M183.69 466.57c-.14 0-.26-23.79-.26-53.14l.26-53.14c.14 0 .26 23.79.26 53.14l-.26 53.14z" class="C"></path>
  </g>
  <g id="I" class="B">
    <g clip-path="url(#M)">
      <path d="M222.74,221.21,239.59,209l21.9,25.93a11.1,11.1,0,0,1,2.25,10l-7.38,28a9.39,9.39,0,0,1-9.73,7h0A9.39,9.39,0,0,1,238,269.31L241.24,244Z" class="D"></path>
      <g class="G">
        <path d="M238.9 242.58a7.22 7.22 0 0 1-.43-1 24.55 24.55 0 0 1-.95-2.73 33.48 33.48 0 0 1 0-18.89 24.53 24.53 0 0 1 1-2.74 5.88 5.88 0 0 1 .44-1 6.93 6.93 0 0 1-.33 1c-.24.64-.53 1.58-.86 2.75a35.86 35.86 0 0 0 0 18.77l.85 2.75a6 6 0 0 1 .28 1.09z"></path>
        <path d="M239.28 230.38a14.59 14.59 0 0 0-1.69 4 14.22 14.22 0 0 0-.14 4.3 3.65 3.65 0 0 1-.32-1.25 9.23 9.23 0 0 1 1.33-6 3.68 3.68 0 0 1 .82-1.05z"></path>
        <path d="M233.66 224.8a3.35 3.35 0 0 1 .78.86 9.58 9.58 0 0 1 1.3 2.48 9.7 9.7 0 0 1 .55 2.76 3.46 3.46 0 0 1-.07 1.16 19.55 19.55 0 0 0-.77-3.81 20 20 0 0 0-1.79-3.45z"></path>
        <path d="M239.67,221.68a10,10,0,0,0-3.17,5.75,6.69,6.69,0,0,1,3.17-5.75Z"></path>
        <path d="M237.05 216.62a6.23 6.23 0 0 1-.1 5.25c-.09 0 .3-1.17.31-2.62s-.26-2.61-.21-2.63z"></path>
        <path d="M257.26 278.22a7 7 0 0 1-.44-1 26.29 26.29 0 0 1-.95-2.74 33.72 33.72 0 0 1 0-18.89 26.43 26.43 0 0 1 1-2.73 7 7 0 0 1 .44-1 6.93 6.93 0 0 1-.33 1l-.85 2.75a35.72 35.72 0 0 0 0 18.77l.85 2.76a6.93 6.93 0 0 1 .28 1.08z"></path>
        <path d="M257.63 266a14.23 14.23 0 0 0-1.69 4 14.54 14.54 0 0 0-.14 4.29 3.71 3.71 0 0 1-.31-1.25 9.17 9.17 0 0 1 .14-3.11 9 9 0 0 1 1.19-2.88 3.78 3.78 0 0 1 .81-1.05z"></path>
        <path d="M252 260.44s.36.27.78.85a9.52 9.52 0 0 1 1.3 2.49 9.64 9.64 0 0 1 .55 2.75 3.16 3.16 0 0 1-.07 1.16 19.69 19.69 0 0 0-.77-3.81 19.28 19.28 0 0 0-1.79-3.44z"></path>
        <path d="M258 257.31a14.69 14.69 0 0 0-2.06 2.62 13 13 0 0 0-1.1 3.14 5.66 5.66 0 0 1 .82-3.3 5.78 5.78 0 0 1 2.34-2.46z"></path>
        <path d="M255.4 252.25a6.28 6.28 0 0 1-.09 5.25c-.09 0 .29-1.17.31-2.62s-.31-2.6-.22-2.63z"></path>
        <path d="M248.67 264a7.22 7.22 0 0 1-.43-1 22.64 22.64 0 0 1-1-2.73 33.48 33.48 0 0 1 0-18.89 23.81 23.81 0 0 1 1-2.74 5.88 5.88 0 0 1 .44-1 7.42 7.42 0 0 1-.33 1c-.24.63-.54 1.57-.86 2.75a35.86 35.86 0 0 0 0 18.77l.85 2.75a6 6 0 0 1 .33 1.09z"></path>
        <path d="M249.05 251.75a14.6 14.6 0 0 0-1.7 3.95 14.4 14.4 0 0 0-.13 4.3 3.65 3.65 0 0 1-.32-1.25 9.19 9.19 0 0 1 1.33-6 3.68 3.68 0 0 1 .82-1z"></path>
        <path d="M243.43,246.17a3.33,3.33,0,0,1,.78.86,9.58,9.58,0,0,1,1.3,2.48,9.7,9.7,0,0,1,.55,2.76,3.37,3.37,0,0,1-.07,1.15,14,14,0,0,0-2.56-7.25Z"></path>
        <path d="M249.44,243.05a13.76,13.76,0,0,0-2.07,2.61,14.31,14.31,0,0,0-1.1,3.14,6.69,6.69,0,0,1,3.17-5.75Z"></path>
        <path d="M230.45 231.47a7 7 0 0 1-.44-1 27.16 27.16 0 0 1-.95-2.74 33.72 33.72 0 0 1 0-18.89 26.43 26.43 0 0 1 1-2.73 6.36 6.36 0 0 1 .44-1 6.93 6.93 0 0 1-.33 1l-.85 2.75a35.72 35.72 0 0 0 0 18.77l.85 2.75a7.23 7.23 0 0 1 .28 1.09z"></path>
        <path d="M230.82 219.27a14.23 14.23 0 0 0-1.69 3.95 14.54 14.54 0 0 0-.14 4.29 3.71 3.71 0 0 1-.31-1.25 9.17 9.17 0 0 1 .14-3.11 9 9 0 0 1 1.19-2.88 3.57 3.57 0 0 1 .81-1z"></path>
        <path d="M225.2,213.68a3.15,3.15,0,0,1,.78.86,9.52,9.52,0,0,1,1.3,2.49,9.64,9.64,0,0,1,.55,2.75,3.16,3.16,0,0,1-.07,1.16,14,14,0,0,0-2.56-7.26Z"></path>
        <path d="M231.21 210.56a14.83 14.83 0 0 0-2.06 2.61 13.14 13.14 0 0 0-1.1 3.15 5.65 5.65 0 0 1 .82-3.3 5.78 5.78 0 0 1 2.34-2.46z"></path>
        <path d="M245.63 214.59a8.37 8.37 0 0 1 .63.85 26.9 26.9 0 0 1 1.52 2.47 33.52 33.52 0 0 1 4 18.45 26 26 0 0 1-.35 2.88 7.14 7.14 0 0 1-.22 1 7.85 7.85 0 0 1 .1-1.06c.1-.67.19-1.66.25-2.87a35.75 35.75 0 0 0-4-18.34l-1.42-2.5a6.45 6.45 0 0 1-.51-.88z"></path>
        <path d="M247.88 226.58a14.39 14.39 0 0 0 .81-4.22 13.84 13.84 0 0 0-.8-4.22 3.32 3.32 0 0 1 .58 1.15 9 9 0 0 1 .53 3.07 9.25 9.25 0 0 1-.54 3.07 3.54 3.54 0 0 1-.58 1.15z"></path>
        <path d="M254.57 230.83a3.29 3.29 0 0 1-.95-.67 9.9 9.9 0 0 1-1.81-2.15 9.76 9.76 0 0 1-1.12-2.57 3.25 3.25 0 0 1-.18-1.15 19.78 19.78 0 0 0 1.57 3.55 20.64 20.64 0 0 0 2.49 2.99z"></path>
        <path d="M249.37 235.17a14.28 14.28 0 0 0 1.45-3 13.77 13.77 0 0 0 .4-3.3 5.64 5.64 0 0 1-.1 3.39 5.71 5.71 0 0 1-1.75 2.91z"></path>
        <path d="M253 239.55a5 5 0 0 1-1.09-2.46 5.1 5.1 0 0 1 0-2.69c.1 0 0 1.2.26 2.63s.93 2.47.83 2.52z"></path>
        <path d="M256.67 234.91a7.08 7.08 0 0 1 .63.85 24.85 24.85 0 0 1 1.52 2.47 33.52 33.52 0 0 1 4 18.45 24 24 0 0 1-.35 2.88 6.38 6.38 0 0 1-.22 1 7.92 7.92 0 0 1 .1-1c.1-.68.19-1.66.25-2.87a35.75 35.75 0 0 0-4-18.34l-1.42-2.51a6.12 6.12 0 0 1-.51-.93z"></path>
        <path d="M258.92 246.9a14.39 14.39 0 0 0 .81-4.22 14.62 14.62 0 0 0-.79-4.23 3.71 3.71 0 0 1 .57 1.16 9 9 0 0 1 .53 3.07 9.25 9.25 0 0 1-.54 3.07 3.54 3.54 0 0 1-.58 1.15z"></path>
        <path d="M265.61 251.15a3.29 3.29 0 0 1-.95-.67 10.1 10.1 0 0 1-1.8-2.15 9.84 9.84 0 0 1-1.13-2.57 3.56 3.56 0 0 1-.18-1.15 19.78 19.78 0 0 0 1.57 3.55 20.64 20.64 0 0 0 2.49 2.99z"></path>
        <path d="M260.41 255.49a14.58 14.58 0 0 0 1.46-3 14.41 14.41 0 0 0 .4-3.3 5.84 5.84 0 0 1-.1 3.39 5.77 5.77 0 0 1-1.76 2.91z"></path>
        <path d="M264.06 259.87a5 5 0 0 1-1.09-2.46 5.1 5.1 0 0 1 0-2.69c.1 0 0 1.2.26 2.63s.91 2.47.83 2.52z"></path>
        <path d="M231.45 250.3a6.49 6.49 0 0 1 .86.62 27 27 0 0 1 2.19 1.9 33.59 33.59 0 0 1 9.39 16.39 26.59 26.59 0 0 1 .53 2.85 6.28 6.28 0 0 1 .1 1.06 7.14 7.14 0 0 1-.22-1c-.11-.67-.32-1.64-.63-2.81a36.05 36.05 0 0 0-3.57-8.77 36.48 36.48 0 0 0-5.75-7.52l-2.11-2a7.51 7.51 0 0 1-.79-.72z"></path>
        <path d="M237.2 261.06a13.9 13.9 0 0 0-.5-4.26 14.28 14.28 0 0 0-2-3.8 3.67 3.67 0 0 1 .9.93 9.16 9.16 0 0 1 1.83 5.86 3.31 3.31 0 0 1-.23 1.27z"></path>
        <path d="M244.86 263.1a3 3 0 0 1-1.11-.35 10 10 0 0 1-4.21-3.62 3.12 3.12 0 0 1-.51-1 19.9 19.9 0 0 0 2.56 2.92 19.24 19.24 0 0 0 3.27 2.05z"></path>
        <path d="M241.2,268.81a14.4,14.4,0,0,0,.49-3.3,13.83,13.83,0,0,0-.61-3.27,6.71,6.71,0,0,1,.12,6.57Z"></path>
        <path d="M246 271.89a5 5 0 0 1-1.78-2 5.06 5.06 0 0 1-.76-2.58c.1 0 .33 1.16 1 2.43s1.6 2.08 1.54 2.15z"></path>
        <path d="M255.45,279.65a11.24,11.24,0,0,0-18.26-8.51l2.09,7.08,9.08,4.42Z"></path>
        <path d="M267.56,252.79a11.09,11.09,0,0,1-6.35-19.64l9.34,5.94Z"></path>
      </g>
    </g>
    <g>
      <g class="F">
        <path d="M222.74,221.21,239.59,209l21.9,25.93a11.1,11.1,0,0,1,2.25,10l-7.38,28a9.39,9.39,0,0,1-9.73,7h0A9.39,9.39,0,0,1,238,269.31L241.24,244Z"></path>
      </g>
    </g>
    <g clip-path="url(#N)">
      <path d="M231.44,212.25,248.29,200l21.9,25.93a11.09,11.09,0,0,1,2.25,10l-7.37,28a9.39,9.39,0,0,1-9.74,7h0a9.39,9.39,0,0,1-8.65-10.56l3.26-25.26Z" class="D"></path>
      <g class="G">
        <path d="M247.6 233.62a8.09 8.09 0 0 1-.43-1 26.29 26.29 0 0 1-.95-2.74 33.72 33.72 0 0 1 0-18.89 26.43 26.43 0 0 1 1-2.73 7 7 0 0 1 .44-1 6.93 6.93 0 0 1-.33 1c-.24.64-.53 1.58-.86 2.75a35.86 35.86 0 0 0 0 18.77l.85 2.76a6 6 0 0 1 .28 1.08z"></path>
        <path d="M248 221.42a11.62 11.62 0 0 0-1.83 8.24 3.55 3.55 0 0 1-.32-1.25 9.21 9.21 0 0 1 .15-3.11 9 9 0 0 1 1.19-2.88 3.56 3.56 0 0 1 .81-1z"></path>
        <path d="M242.36 215.84s.35.27.78.85a9.83 9.83 0 0 1 1.3 2.49 9.64 9.64 0 0 1 .55 2.75 3.46 3.46 0 0 1-.07 1.16 19.69 19.69 0 0 0-.77-3.81 20.08 20.08 0 0 0-1.79-3.44z"></path>
        <path d="M248.37,212.71a15,15,0,0,0-2.07,2.62,14.13,14.13,0,0,0-1.1,3.14,6.69,6.69,0,0,1,3.17-5.76Z"></path>
        <path d="M245.75 207.65a5.06 5.06 0 0 1 .53 2.64 4.92 4.92 0 0 1-.63 2.61c-.09 0 .3-1.17.31-2.62s-.3-2.6-.21-2.63z"></path>
        <path d="M266 269.25a5.79 5.79 0 0 1-.44-1 26 26 0 0 1-.95-2.73 33.71 33.71 0 0 1 0-18.89 25.59 25.59 0 0 1 1-2.73 7.05 7.05 0 0 1 .44-1 6.93 6.93 0 0 1-.33 1l-.85 2.75a35.72 35.72 0 0 0 0 18.77l.85 2.75a6.93 6.93 0 0 1 .28 1.08z"></path>
        <path d="M266.33 257.06a14.25 14.25 0 0 0-1.69 3.94 14.61 14.61 0 0 0-.14 4.3 3.81 3.81 0 0 1-.31-1.25 9.17 9.17 0 0 1 .14-3.11 9 9 0 0 1 1.19-2.89 3.41 3.41 0 0 1 .81-.99z"></path>
        <path d="M260.71 251.47a3.15 3.15 0 0 1 .78.86 9.82 9.82 0 0 1 1.31 2.49 9.93 9.93 0 0 1 .54 2.75 3.16 3.16 0 0 1-.07 1.16 19.55 19.55 0 0 0-.77-3.81 19.17 19.17 0 0 0-1.79-3.45z"></path>
        <path d="M266.72 248.35a14.38 14.38 0 0 0-2.06 2.61 13.31 13.31 0 0 0-1.1 3.14 5.62 5.62 0 0 1 .82-3.29 5.78 5.78 0 0 1 2.34-2.46z"></path>
        <path d="M264.1 243.29a5 5 0 0 1 .53 2.63 5.14 5.14 0 0 1-.62 2.62c-.09 0 .29-1.17.31-2.62s-.32-2.61-.22-2.63z"></path>
        <path d="M257.37 255a8.09 8.09 0 0 1-.43-1 22.91 22.91 0 0 1-.95-2.74 33.48 33.48 0 0 1 0-18.89 24.23 24.23 0 0 1 1-2.73 6.36 6.36 0 0 1 .44-1 6.93 6.93 0 0 1-.33 1c-.24.64-.54 1.58-.86 2.75a35.86 35.86 0 0 0 0 18.77l.85 2.75a6.25 6.25 0 0 1 .28 1.09z"></path>
        <path d="M257.75 242.79a11.49 11.49 0 0 0-1.83 8.24 3.55 3.55 0 0 1-.32-1.25 9.18 9.18 0 0 1 1.33-6 3.48 3.48 0 0 1 .82-.99z"></path>
        <path d="M252.13 237.2a3.57 3.57 0 0 1 .78.86 9.83 9.83 0 0 1 1.3 2.49 9.64 9.64 0 0 1 .55 2.75 3.46 3.46 0 0 1-.07 1.16 20.64 20.64 0 0 0-.77-3.81 20.43 20.43 0 0 0-1.79-3.45z"></path>
        <path d="M258.14 234.08a14.6 14.6 0 0 0-2.07 2.61 14.29 14.29 0 0 0-1.1 3.15 5.82 5.82 0 0 1 .83-3.3 5.72 5.72 0 0 1 2.34-2.46z"></path>
        <path d="M239.15 222.5a6.36 6.36 0 0 1-.44-1 26 26 0 0 1-1-2.73 33.71 33.71 0 0 1 0-18.89 25.59 25.59 0 0 1 1-2.73 7.05 7.05 0 0 1 .44-1 6.93 6.93 0 0 1-.33 1l-.85 2.75a35.72 35.72 0 0 0 0 18.77l.85 2.75a6.93 6.93 0 0 1 .33 1.08z"></path>
        <path d="M239.52 210.3a11.63 11.63 0 0 0-1.83 8.25 3.81 3.81 0 0 1-.31-1.25 9.17 9.17 0 0 1 .14-3.11 9 9 0 0 1 1.19-2.89 3.78 3.78 0 0 1 .81-1z"></path>
        <path d="M233.9 204.72a3.15 3.15 0 0 1 .78.86 9.61 9.61 0 0 1 1.3 2.48 9.76 9.76 0 0 1 .55 2.76 3.16 3.16 0 0 1-.07 1.16 19.55 19.55 0 0 0-.77-3.81 19.17 19.17 0 0 0-1.79-3.45z"></path>
        <path d="M239.91 201.6a14 14 0 0 0-2.06 2.61 13.31 13.31 0 0 0-1.1 3.14 5.62 5.62 0 0 1 .82-3.29 5.78 5.78 0 0 1 2.34-2.46z"></path>
        <path d="M254.33 205.62a9.61 9.61 0 0 1 .63.86 26.49 26.49 0 0 1 1.52 2.46 33.58 33.58 0 0 1 4 18.46 25.72 25.72 0 0 1-.35 2.87 6.74 6.74 0 0 1-.22 1 8.12 8.12 0 0 1 .1-1.06c.1-.67.19-1.65.25-2.87a35.74 35.74 0 0 0-4-18.33l-1.42-2.51a5.85 5.85 0 0 1-.51-.88z"></path>
        <path d="M256.58 217.62a14.39 14.39 0 0 0 .81-4.22 13.86 13.86 0 0 0-.8-4.23 3.24 3.24 0 0 1 .58 1.16 9 9 0 0 1 .53 3.07 9.3 9.3 0 0 1-.54 3.07 3.69 3.69 0 0 1-.58 1.15z"></path>
        <path d="M263.27 221.86a3.05 3.05 0 0 1-.95-.67 9.77 9.77 0 0 1-1.8-2.14 9.42 9.42 0 0 1-1.13-2.58 3.2 3.2 0 0 1-.18-1.14 19.78 19.78 0 0 0 1.57 3.55 19.57 19.57 0 0 0 2.49 2.98z"></path>
        <path d="M258.07 226.2a14 14 0 0 0 1.45-3 13.21 13.21 0 0 0 .4-3.31 5.68 5.68 0 0 1-.1 3.4 5.6 5.6 0 0 1-1.75 2.91z"></path>
        <path d="M261.72 230.58a6.21 6.21 0 0 1-1-5.14c.1 0 0 1.2.26 2.62s.82 2.48.74 2.52z"></path>
        <path d="M265.37 225.94a6.82 6.82 0 0 1 .63.85 26.1 26.1 0 0 1 1.52 2.47 33.58 33.58 0 0 1 4 18.46 23.53 23.53 0 0 1-.35 2.87 7.14 7.14 0 0 1-.22 1 8.12 8.12 0 0 1 .1-1.06c.1-.67.19-1.65.25-2.87a35.74 35.74 0 0 0-4-18.33l-1.42-2.51a5.85 5.85 0 0 1-.51-.88z"></path>
        <path d="M267.62 237.94a11.56 11.56 0 0 0 0-8.45 3.43 3.43 0 0 1 .57 1.15 9.08 9.08 0 0 1 .53 3.08 9.18 9.18 0 0 1-.54 3.06 3.68 3.68 0 0 1-.56 1.16z"></path>
        <path d="M274.31 242.18a3.05 3.05 0 0 1-.95-.67 10 10 0 0 1-2.93-4.72 3.52 3.52 0 0 1-.18-1.14 20.13 20.13 0 0 0 1.57 3.55 19.57 19.57 0 0 0 2.49 2.98z"></path>
        <path d="M269.11 246.52a10 10 0 0 0 1.86-6.3 5.88 5.88 0 0 1-.1 3.4 5.65 5.65 0 0 1-1.76 2.9z"></path>
        <path d="M272.76 250.9a6.21 6.21 0 0 1-1-5.14c.1 0 0 1.2.26 2.62s.82 2.48.74 2.52z"></path>
        <path d="M240.15 241.34a5.47 5.47 0 0 1 .86.62 25.09 25.09 0 0 1 2.19 1.9 33.59 33.59 0 0 1 9.39 16.39 24.57 24.57 0 0 1 .53 2.84 6.35 6.35 0 0 1 .1 1.06 7.14 7.14 0 0 1-.22-1c-.11-.67-.32-1.63-.63-2.81a36.37 36.37 0 0 0-3.57-8.77 37 37 0 0 0-5.75-7.52l-2.11-2a8.4 8.4 0 0 1-.79-.71z"></path>
        <path d="M245.9 252.1a11.58 11.58 0 0 0-2.52-8.06 3.27 3.27 0 0 1 .9.93 9.16 9.16 0 0 1 1.83 5.86 3.31 3.31 0 0 1-.21 1.27z"></path>
        <path d="M253.56,254.14a3,3,0,0,1-1.11-.35,9.92,9.92,0,0,1-4.21-3.63,2.94,2.94,0,0,1-.51-1,13.91,13.91,0,0,0,5.83,5Z"></path>
        <path d="M249.9 259.84a14.12 14.12 0 0 0 .49-3.29 13.69 13.69 0 0 0-.61-3.27 5.59 5.59 0 0 1 .92 3.26 5.64 5.64 0 0 1-.8 3.3z"></path>
        <path d="M254.7 262.92a4.83 4.83 0 0 1-1.78-2 5.14 5.14 0 0 1-.76-2.57c.1 0 .33 1.15 1 2.42a25.24 25.24 0 0 0 1.54 2.15z"></path>
      </g>
      <g class="E">
        <g opacity=".8">
          <path d="M264.15,270.69a11.24,11.24,0,0,0-18.26-8.51l2.09,7.07,9.08,4.43Z"></path>
        </g>
      </g>
      <g class="E">
        <g opacity=".8">
          <path d="M276.26,243.83a11.09,11.09,0,0,1-6.35-19.65l9.34,5.95Z"></path>
        </g>
      </g>
    </g>
  </g>
  <g id="J" class="B">
    <g class="D">
      <rect x="515.49" y="222.56" width="29.74" height="44.51" rx="3.58" transform="rotate(292.15)"></rect>
    </g>
    <g>
      <g class="F">
        <g>
          <rect x="515.49" y="222.56" width="29.74" height="44.51" rx="3.58" transform="rotate(292.15)"></rect>
        </g>
      </g>
    </g>
    <path d="M543.3 240a2.28 2.28 0 0 1 .21-.53l.7-1.47a35.14 35.14 0 0 0 2.2-5.52 13.43 13.43 0 0 0-.18-8.57 8.75 8.75 0 0 0-3.14-3.93 24.47 24.47 0 0 0-5-2.52c-3.51-1.42-7.27-2.14-10.43-1.15a9.59 9.59 0 0 0-3.93 2.35 14 14 0 0 0-2.45 3.24 29.47 29.47 0 0 0-2.24 5.5l-.49 1.55a3.34 3.34 0 0 1-.2.53 1.83 1.83 0 0 1 .1-.56 42.25 42.25 0 0 1 .39-1.58 27.3 27.3 0 0 1 2.11-5.62 14.1 14.1 0 0 1 2.48-3.36 9.76 9.76 0 0 1 4.09-2.51 12.14 12.14 0 0 1 5.29-.37 23.06 23.06 0 0 1 5.48 1.5 24.44 24.44 0 0 1 5 2.59 9.12 9.12 0 0 1 3.29 4.16 13.55 13.55 0 0 1 .09 8.85 31.14 31.14 0 0 1-2.37 5.51c-.33.63-.6 1.11-.78 1.43a3 3 0 0 1-.22.48z" class="C"></path>
    <g class="D">
      <rect x="510.35" y="220.28" width="29.74" height="44.51" rx="3.58" transform="rotate(292.15)"></rect>
    </g>
    <g class="E">
      <g class="J">
        <path d="M505.08 233a74 74 0 0 0 8.51 4.76c3 1.24.2 2 5.16 1.46s5.4-.56 6.51.34 1.61 2.2 2.46 2.66a25.58 25.58 0 0 0 2.38 1l4.45 1.74c5.83 1.62 7.16.22 8.82 2.67s2.75 2.58 2.75 2.58l1.13-2.78-5.25-2.13-3.13-2.46c-.71-.46-1-1.45-2.28-.92a7.74 7.74 0 0 1-3.15.49c-.74 0-3.36-.45-3.36-.45l-2.28-.93-.51-2-2.08-1.44-1.12-.16-2.81-.7-3.91-.56-4-1-2.28-.93-3.45-.22z"></path>
      </g>
    </g>
    <g class="E">
      <g class="J">
        <path d="M504.26 238.26l5.95 4.63 2.95 2.54s4 2.2 5.32 2.16a11.38 11.38 0 0 1 3.5.84l2 1.66 2.78 1.13 3.09.4 2.77.08 2.41 1 3.17 1.29 2.91 1.19 1.77.72.45 1.21 1-2.51-8.24-5.6-6.21-.72-5.13-2.08-2.34-2.76-4.15-.33-3.88-1-4.21-2-4.43-1.8z"></path>
      </g>
    </g>
    <g class="E">
      <g class="J">
        <path d="M501.79 241.06l2.67 6.88 2.27 3.13 7.22 2.94-4.48-7.13-3.49-2.31-2.85-3.52-.89-1.1-.45 1.11z"></path>
      </g>
    </g>
    <g class="E">
      <g class="J">
        <path d="M513.02 247.58l4.83 4.48.79 3.86 4.69 1.9 5.44 2.22 3.59-1.56 4.48-.47 1.9.04-3.67-1.49-4.53.22-3.5-.47-3.61-3.09-4.06-1.65-1.15-1.87-1.95-1.39-3.25-.73z"></path>
      </g>
    </g>
    <g class="E">
      <g class="J">
        <path d="M508.41 228.58l6.9 1.19 5.69-1.37 4-1 4.33 2.8 5 2.34 6.22 1.2 4 .43 3.09 2.59 1.42 4.86.08 1.24-.56 1.38-3.47-5.26a34.12 34.12 0 0 0-2.83-2.48c-.38-.16-2.13-1.31-2.91-1.19a14.91 14.91 0 0 1-5-.72l-5.06-1.46-3-1.84-1.77-.72h-4.29l-2.45.92-2.22 1.11-3.68-1.49-5.3-1.65.79-1.92z"></path>
      </g>
    </g>
    <g class="E">
      <g class="J">
        <path d="M516.22 223.3l-7.93 1.8-.6 1.46 4.56.04 4.29-.37 2.82-1.65-3.14-1.28z"></path>
      </g>
    </g>
    <path d="M536.91 263.35a4.45 4.45 0 0 0 1.41.21 3.51 3.51 0 0 0 3.15-2.18l5.67-14.16q.92-2.25 1.89-4.69l1-2.48a3.37 3.37 0 0 0-.29-2.54 3.6 3.6 0 0 0-2.1-1.66l-2.76-1.12-5.77-2.33-25.68-10.4a3.34 3.34 0 0 0-3.23.41 3.27 3.27 0 0 0-1 1.29l-.69 1.65-2.66 6.55q-2.64 6.44-5.05 12.37a4.39 4.39 0 0 0-.43 1.44 3.38 3.38 0 0 0 2.16 3.42l5.44 2.22 9.74 4 14.1 5.83 3.82 1.61 1 .43a2.29 2.29 0 0 1 .33.16 1.73 1.73 0 0 1-.35-.11l-1-.38-3.86-1.52-14.16-5.67-9.77-3.95-5.44-2.2a3.82 3.82 0 0 1-2.23-2.24 3.78 3.78 0 0 1-.23-1.64 4.89 4.89 0 0 1 .45-1.58l5-12.39 2.66-6.54.69-1.68a3.76 3.76 0 0 1 1.18-1.48 3.86 3.86 0 0 1 3.73-.47L539.28 232l5.75 2.36 2.76 1.13a4 4 0 0 1 2.31 1.86 3.79 3.79 0 0 1 .31 2.87l-1 2.51-1.92 4.68-5.83 14.09a3.67 3.67 0 0 1-1.63 1.78 3.56 3.56 0 0 1-1.71.44 2.76 2.76 0 0 1-1.41-.37z" class="C"></path>
  </g>
  <g id="K" class="B">
    <path d="M657.26 295.36v-.65l.21-1.9c0-.42.12-.89.13-1.41v-1.7-2l-.19-2.25a36.51 36.51 0 0 0-3-11.2 36.06 36.06 0 0 0-9-12.31l-1.63-1.42-1.8-1.3a35.6 35.6 0 0 0-3.88-2.39 36.23 36.23 0 0 0-9.09-3.29 37.3 37.3 0 0 0-5-.79c-.86-.09-1.73 0-2.61-.08h-1.32c-.45 0-.89.07-1.33.1a34.44 34.44 0 0 0-10.69 2.36 36.43 36.43 0 0 0-17.88 14.77 37.08 37.08 0 0 0-5.18 24.27q.12.82.27 1.65v.11l-.06.09-11.71 16.36-.25-.4 17.38-2.69h.16l.08.13a36.27 36.27 0 0 0 21.37 15.05 28.48 28.48 0 0 0 4 .74l2 .25c.66.08 1.33.05 2 .07a36.25 36.25 0 0 0 14.44-2.57 37.34 37.34 0 0 0 10.75-6.62l2.05-1.92 1.75-2a19.49 19.49 0 0 0 1.53-2c.46-.67 1-1.27 1.34-1.93a38.17 38.17 0 0 0 3.38-6.9l.9-2.63.47-2 .29-1.21.12-.41s0 .15-.07.42l-.26 1.22-.43 2c-.17.79-.54 1.66-.86 2.66a37.37 37.37 0 0 1-3.34 7c-.37.67-.87 1.27-1.33 1.95a18.63 18.63 0 0 1-1.53 2l-1.75 2-2.06 1.95a37.48 37.48 0 0 1-10.81 6.73 36.58 36.58 0 0 1-14.59 2.65c-.66 0-1.33 0-2-.07l-2-.24a29.16 29.16 0 0 1-4.08-.74 36.71 36.71 0 0 1-21.67-15.21l.25.11-17.38 2.7-.61.1.36-.5 11.77-16.36-.05.2q-.15-.84-.27-1.68a37.49 37.49 0 0 1 5.22-24.63 37 37 0 0 1 18.14-15 35.19 35.19 0 0 1 10.84-2.37c.45 0 .9-.08 1.34-.09h1.34l2.65.1a38.45 38.45 0 0 1 5.1.81 36 36 0 0 1 9.17 3.36 34 34 0 0 1 3.92 2.43l1.81 1.31 1.65 1.44a36.3 36.3 0 0 1 12 23.77l.17 2.27c.06.72 0 1.37 0 2l-.05 1.71-.16 1.41-.26 1.9c-.06.45-.17.71-.17.71z" class="C"></path>
    <path class="I" d="M633.06 275.07l4.39 33.25h-32.52l4.74-33.25h23.39z"></path>
    <path d="M612.31 279.89A14.93 14.93 0 0 0 614 283a8.55 8.55 0 0 0 2.83 2.5 9.25 9.25 0 0 0 4.48 1.09 9.56 9.56 0 0 0 4.5-1 7.68 7.68 0 0 0 2.79-2.52 14 14 0 0 0 1.5-3.22 2.54 2.54 0 0 1-.13 1 9 9 0 0 1-1.06 2.45 7.84 7.84 0 0 1-2.87 2.74 9.71 9.71 0 0 1-4.73 1.09 9.49 9.49 0 0 1-4.71-1.19 8.59 8.59 0 0 1-2.9-2.71 9.13 9.13 0 0 1-1.17-2.39 2.47 2.47 0 0 1-.22-.95z" class="E"></path>
  </g>
  <defs>
    <clipPath id="L">
      <path d="M365.63 173.8s-13.3-.18-16.23 4.17-15 31.42-15 31.42l18.87 9.82 4.06-11.6 6.62 24.25c-7.58 6-18.32 60.63-16.18 83.64l70.88.23s.49-63.84-18.68-84.83l4.49-25.35 4.33 12.37 20-8.3-15.05-27.07a14.58 14.58 0 0 0-12.66-7.49h-4.91s-2.07 18.12-15.24 17.77-15.3-19.03-15.3-19.03z" fill="none"></path>
    </clipPath>
    <clipPath id="M">
      <path d="M222.74,221.21,239.59,209l21.9,25.93a11.1,11.1,0,0,1,2.25,10l-7.38,28a9.39,9.39,0,0,1-9.73,7h0A9.39,9.39,0,0,1,238,269.31L241.24,244Z" fill="none"></path>
    </clipPath>
    <clipPath id="N">
      <path d="M231.44,212.25,248.29,200l21.9,25.93a11.09,11.09,0,0,1,2.25,10l-7.37,28a9.39,9.39,0,0,1-9.74,7h0a9.39,9.39,0,0,1-8.65-10.56l3.26-25.26Z" fill="none"></path>
    </clipPath>
  </defs>
</svg>
